<?xml version="1.0" encoding="utf-8"?>
<!-- Generator: Adobe Illustrator 27.0.0, SVG Export Plug-In . SVG Version: 6.00 Build 0)  -->
<svg version="1.1" id="Layer_1" xmlns="http://www.w3.org/2000/svg" xmlns:xlink="http://www.w3.org/1999/xlink" x="0px" y="0px"
	 viewBox="0 0 6400 64" style="enable-background:new 0 0 6400 64;" xml:space="preserve">
<style type="text/css">
	.st0{fill:#A7AEB8;}
	.st1{fill:#A7AEB8;stroke:#000000;stroke-width:4;stroke-miterlimit:10;}
</style>
<g id="weekly">
	<g>
		<path class="st0" d="M6136,56h-48V12h48V56z M6092,52h40V16h-40V52z"/>
		<path class="st0" d="M6114,8h-4v12h4V8z"/>
		<path class="st0" d="M6128,8h-4v12h4V8z"/>
		<path class="st0" d="M6100,8h-4v12h4V8z"/>
		<path class="st0" d="M6114,28h-9v-4h7h7v4l-9,19h-5L6114,28z"/>
	</g>
</g>
<g id="daily">
	<g>
		<path class="st0" d="M6072,56h-48V12h48V56z M6028,52h40V16h-40V52z"/>
		<path class="st0" d="M6050,8h-4v12h4V8z"/>
		<path class="st0" d="M6064,8h-4v12h4V8z"/>
		<path class="st0" d="M6036,8h-4v12h4V8z"/>
		<path class="st0" d="M6048,29l-4,3v-5l4-3h4v23h-4V29z"/>
	</g>
</g>
<g id="estimate">
	<g>
		<path class="st0" d="M5964,6h40v52l-4-4V10h-32v44h32l4,4h-40V6z"/>
		<path class="st0" d="M5972,14h24v12l-4-4v-4h-16v4h16l4,4h-24V14z"/>
		<rect x="5974" y="30" class="st0" width="4" height="4"/>
		<rect x="5982" y="30" class="st0" width="4" height="4"/>
		<rect x="5990" y="30" class="st0" width="4" height="4"/>
		<rect x="5974" y="30" class="st0" width="4" height="4"/>
		<rect x="5982" y="30" class="st0" width="4" height="4"/>
		<rect x="5990" y="30" class="st0" width="4" height="4"/>
		<rect x="5974" y="38" class="st0" width="4" height="4"/>
		<rect x="5982" y="38" class="st0" width="4" height="4"/>
		<rect x="5990" y="38" class="st0" width="4" height="4"/>
		<rect x="5974" y="46" class="st0" width="4" height="4"/>
		<rect x="5982" y="46" class="st0" width="4" height="4"/>
		<rect x="5990" y="46" class="st0" width="4" height="4"/>
	</g>
</g>
<g id="planners">
	<g>
		<path class="st0" d="M5940,58.5h-40v-53h26.8l13.2,13.2V58.5z M5904,54.5h32V20.3l-10.8-10.8H5904V54.5z"/>
		<path class="st0" d="M5938,22.5h-14v-15h4v11h10V22.5z"/>
		<path class="st0" d="M5931,26h-14v4h14V26z"/>
		<path class="st0" d="M5911,30l3-3l-1-1l-2,2l-1-1l-1,1L5911,30z"/>
		<path class="st0" d="M5913,34h-4v4h4V34z"/>
		<path class="st0" d="M5931,34h-14v4h14V34z"/>
		<path class="st0" d="M5931,42h-14v4h14V42z"/>
		<path class="st0" d="M5913,42h-4v4h4V42z"/>
	</g>
</g>
<g id="discipline">
	<g>
		<path class="st0" d="M5834.5,57.4h20v-4h-16v-45h21.2l10.8,10.8v17.7h4V17.6l-13.2-13.2h-26.8V57.4z"/>
		<path class="st0" d="M5872.5,21.4h-14v-15h4v11h10V21.4z"/>
		<path class="st0" d="M5865.5,24.9h-22v4h22V24.9z"/>
		<path class="st0" d="M5865.5,32.9h-22v4h22V32.9z"/>
		<path class="st0" d="M5854.5,40.9h-11v4h11V40.9z"/>
		<path class="st0" d="M5867.5,53.3c-2.2,0-4-1.8-4-4c0-2.2,1.8-4,4-4s4,1.8,4,4C5871.4,51.5,5869.7,53.3,5867.5,53.3z M5867.5,46.9
			c-1.3,0-2.4,1.1-2.4,2.4c0,1.3,1.1,2.4,2.4,2.4c1.3,0,2.4-1.1,2.4-2.4C5869.9,48,5868.8,46.9,5867.5,46.9z"/>
		<path class="st0" d="M5869.7,59.6h-4.5l-0.6-2.9c-0.8-0.3-1.5-0.7-2.2-1.3l-2.8,1l-2.2-3.9l2.2-1.9c-0.1-0.4-0.1-0.9-0.1-1.3
			c0-0.4,0-0.8,0.1-1.3l-2.2-1.9l2.2-3.9l2.8,1c0.7-0.6,1.4-1,2.2-1.3l0.6-2.9h4.5l0.6,2.9c0.8,0.3,1.5,0.8,2.2,1.3l2.8-1l2.2,3.9
			l-2.2,1.9c0.1,0.4,0.1,0.8,0.1,1.3c0,0.4,0,0.8-0.1,1.3l2.2,1.9l-2.2,3.9l-2.8-1c-0.7,0.6-1.4,1-2.2,1.3L5869.7,59.6z M5866.6,58
			h1.9l0.5-2.5l0.4-0.2c0.9-0.3,1.7-0.8,2.4-1.4l0.4-0.3l2.5,0.8l1-1.6l-1.9-1.7l0.1-0.5c0.1-0.5,0.2-1,0.2-1.4c0-0.4,0-0.9-0.2-1.4
			l-0.1-0.5l1.9-1.7l-1-1.6l-2.4,0.8l-0.4-0.3c-0.7-0.6-1.5-1.1-2.4-1.4l-0.4-0.2l-0.5-2.5h-1.9l-0.5,2.5l-0.4,0.2
			c-0.9,0.3-1.7,0.8-2.5,1.4l-0.4,0.3l-2.4-0.8l-1,1.6l1.9,1.7l-0.1,0.5c-0.1,0.5-0.2,1-0.2,1.4c0,0.5,0,1,0.2,1.4l0.1,0.5l-1.9,1.7
			l1,1.6l2.4-0.8l0.4,0.3c0.7,0.7,1.5,1.1,2.4,1.4l0.4,0.2L5866.6,58z"/>
	</g>
</g>
<g id="billing_rates">
	<g>
		<path class="st0" d="M5771,57h26v-4h-22V8h21.2l10.8,10.8V31h4V17.2L5797.8,4H5771V57z"/>
		<path class="st0" d="M5809,21h-14V6h4v11h10V21z"/>
		<path class="st0" d="M5802,24.5h-22v4h22V24.5z"/>
		<path class="st0" d="M5797,32.5h-17v4h17V32.5z"/>
		<path class="st0" d="M5797,40.5h-17v4h17V40.5z"/>
		<path class="st0" d="M5807,58c-3.3,0-6-2.7-6-6h2.9c0,1.7,1.3,3,3,3c1.7,0,3-1.3,3-3c0-1.7-1.3-3-3-3h-0.3c-3.2-0.1-5.7-2.7-5.7-6
			c0-3.3,2.7-6,6-6c3.3,0,6,2.7,6,6h-2.9c0-1.7-1.3-3-3-3c-1.7,0-3,1.3-3,3c0,1.7,1.3,3,2.9,3h0.3c3.2,0.1,5.8,2.7,5.8,6
			C5813,55.3,5810.3,58,5807,58z"/>
		<path class="st0" d="M5809,55h-3v5h3V55z"/>
		<path class="st0" d="M5809,35h-3v5h3V35z"/>
	</g>
</g>
<g id="clear">
	<g>
		<path class="st0" d="M5739.4,14.5l2.5,3l-10,10l2,2l10-10c0.5-0.5,0.5-1.5,0-2c-0.5-0.5-1.5-0.5-2,0L5739.4,14.5
			c1.5-1.5,6-1.5,7.5,0c1.5,1.5,1.5,6,0,7.5l-10.5,10.5c2,2.5,1,7.5-1,9.5l-11.5,11.5v-5l8.5-8.5c2-2,1.5-5,0-6.5l-5-5
			c-1.5-1.5-4-1.5-5.5,0l-9,9l2.5,2.5l5-5l2.5-0.5l-0.5,2.5l-5,5l2,2l5-5l2.5-0.5l-0.5,2.5l-5,5l2.5,2.5v5c-5-4-11-10-16-16
			l11.5-11.5c2.5-2.5,7-3,9.5-1L5739.4,14.5z"/>
	</g>
</g>
<g id="wand">
	<g>
		<path class="st0" d="M5649.6,49.4l26-26l-2-2v-4l6,6l-30,30l-6-6l30-30v4l-26,26L5649.6,49.4z"/>
		<path class="st0" d="M5669.6,21.4l6,6l-2,2l-6-6L5669.6,21.4z"/>
		<path class="st0" d="M5681.6,15.4l0.5-0.5l0.5-0.5l-1-1l-1,1h-2l2-1l1-2l1,2l2,1l-2,1l-1,2l-1-2l-2-1h2L5681.6,15.4z"/>
		<path class="st0" d="M5682.6,22.4l0.5-0.5l0.5-0.5l-1-1l-1,1h-2l2-1l1-2l1,2l2,1l-2,1l-1,2l-1-2l-2-1h2L5682.6,22.4z"/>
		<path class="st0" d="M5674.6,14.4l0.5-0.5l0.5-0.5l-1-1l-1,1h-2l2-1l1-2l1,2l2,1l-2,1l-1,2l-1-2l-2-1h2L5674.6,14.4z"/>
	</g>
</g>
<g id="restore">
	<g>
		<path class="st0" d="M5575.8,26l6.1,6.1l6-6.1l2.8,2.8l-8.8,9l-9-9L5575.8,26z"/>
		<path class="st0" d="M5604.2,40l2.8-2.8l-5-5V21h-4v12.8L5604.2,40z"/>
		<path class="st0" d="M5600,12c11,0,20,9,20,20s-9,20-20,20c0-1,0-3,0-4c9,0,16-7,16-16s-7-16-16-16s-16,7-16,16c-1,1-3,1-4,0
			C5580,21,5589,12,5600,12z"/>
	</g>
</g>
<g id="lightning">
	<g>
		<path class="st0" d="M5549,28l-18,29l2-23l-10,2l18-29l-2,23L5549,28z"/>
	</g>
</g>
<g id="simple">
	<g>
		<path class="st0" d="M5491,57c-3,0-35.1,0-38,0s-6-3-6-6s0-35,0-38s3-6,6-6s35,0,38,0s6,3,6,6s0,35,0,38S5494,57,5491,57z
			 M5461,48c2,0,15.2,0,18,0s5-3,5-6s0-4,0-7s-2-6-5-6s-10,0-11,0s-2-1-2-2s0-2,0-3s1-2,2-2s13,0,15,0s2-6,0-6s-13,0-17,0s-6,2-6,5
			s0,6,0,9s3,5,6,5s9,0,10,0s2,1,2,2s0,2,0,3s-1,2-2,2s-13,0-15,0S5459,48,5461,48z"/>
	</g>
</g>
<g id="pivot">
	<g>
		<path class="st0" d="M5435,20.5h-34.7V5.1h34.7V20.5z M5404.1,16.7h27V8.9h-27V16.7z"/>
		<path class="st0" d="M5396.4,20.5H5381V5.1h15.4V20.5z M5384.9,16.7h7.7V8.9h-7.7V16.7z"/>
		<path class="st0" d="M5396.4,59.1H5381V24.4h15.4V59.1z M5384.9,55.2h7.7v-27h-7.7V55.2z"/>
		<path class="st0" d="M5432.2,36.9l-5.4-5.2l-5.4,5.2l-1.8-1.7l7.2-6.9l7.2,6.9L5432.2,36.9z"/>
		<path class="st0" d="M5428.2,31.1h-2.9v21.2h2.9V31.1z"/>
		<path class="st0" d="M5412.8,45.5l-5.2,5.4l5.2,5.4l-1.7,1.8l-6.9-7.2l6.9-7.2L5412.8,45.5z"/>
		<path class="st0" d="M5407,49.4v2.9h21.2v-2.9H5407z"/>
	</g>
</g>
<g id="role">
	<g>
		<path class="st0" d="M5342.4,35.8c-7.1,0-12.9-5.8-12.9-12.9s5.8-12.9,12.9-12.9s12.9,5.8,12.9,12.9S5349.5,35.8,5342.4,35.8z
			 M5342.4,13.9c-4.9,0-8.9,4-8.9,8.9s4,8.9,8.9,8.9s8.9-4,8.9-8.9S5347.3,13.9,5342.4,13.9z"/>
		<path class="st0" d="M5356.3,37.7c-3.6-3.5-8.5-5.7-14-5.7c-11,0-19.9,8.9-19.9,19.9h4c0-8.8,7.1-15.9,15.9-15.9
			c3.8,0,7.4,1.4,10.1,3.7C5353.6,38.7,5354.9,38.1,5356.3,37.7z"/>
		<path class="st0" d="M5364,46.6c0-0.3,0-0.6-0.1-0.9l1.6-1.4l-1.6-2.8l-2,0.7c-0.5-0.4-1-0.7-1.6-0.9l-0.4-2.1h-3.3l-0.4,2.1
			c-0.6,0.2-1.1,0.5-1.6,0.9l-2-0.7l-1.6,2.8l1.6,1.4c-0.1,0.3-0.1,0.6-0.1,0.9c0,0.3,0,0.6,0.1,0.9l-1.6,1.4l1.6,2.8l2-0.7
			c0.5,0.4,1,0.7,1.6,0.9l0.4,2.1h3.3l0.4-2.1c0.6-0.2,1.1-0.5,1.6-0.9l2,0.7l1.6-2.8l-1.6-1.4C5364,47.2,5364,46.9,5364,46.6z
			 M5358.2,48.3c-1,0-1.7-0.8-1.7-1.7c0-1,0.8-1.7,1.7-1.7c1,0,1.7,0.8,1.7,1.7C5360,47.5,5359.2,48.3,5358.2,48.3z"/>
	</g>
</g>
<g id="star">
	<g>
		<path class="st0" d="M5281.1,5l7.3,17.7l18.7,2.9l-13.5,13.8l3.2,19.6l-16.7-9.3l-16.7,9.3l3.2-19.6l-13.5-13.8l18.7-2.9L5281.1,5
			z"/>
	</g>
</g>
<g id="briefcase">
	<g>
		<path class="st0" d="M5241.2,56.5h-50.4V18.4h50.4V56.5z M5194.9,52.5h42.4V22.4h-42.4V52.5z"/>
		<rect x="5192.9" y="35.5" class="st0" width="46.4" height="4"/>
		<polygon class="st0" points="5218,30.5 5214,30.5 5214,26.5 5218,26.5 		"/>
		<rect x="5204" y="8" class="st0" width="4" height="14"/>
		<rect x="5224" y="8" class="st0" width="4" height="14"/>
		<rect x="5204" y="8" class="st0" width="24" height="4"/>
	</g>
</g>
<g id="synchronize">
	<g>
		<g>
			<path class="st0" d="M5150.6,53c-5.6-0.4-10.7-3-14.3-7.3c-3.7-4.3-5.4-9.7-5-15.3c0.5-6.6,4.2-12.7,9.8-16.2l2.1,3.4
				c-4.6,2.9-7.5,7.8-7.9,13.1c-0.3,4.5,1.1,8.9,4.1,12.4s7.1,5.5,11.6,5.9L5150.6,53z"/>
			<g>
				<polygon class="st0" points="5140.1,27.9 5140.1,17.9 5130.1,17.9 5130.1,13.9 5144.1,13.9 5144.1,27.9 				"/>
			</g>
		</g>
		<g>
			<path class="st0" d="M5163.1,49.8l-2.1-3.4c4.6-2.9,7.5-7.8,8-13.1c0.7-9.3-6.3-17.5-15.7-18.2l0.3-4c11.5,0.9,20.2,11,19.4,22.5
				C5172.4,40.2,5168.7,46.3,5163.1,49.8z"/>
			<g>
				<polygon class="st0" points="5174,50.2 5160,50.2 5160,36.2 5164,36.2 5164,46.2 5174,46.2 				"/>
			</g>
		</g>
	</g>
</g>
<g id="restart">
	<g>
		<path class="st0" d="M5088,53.1c-0.5,0-1,0-1.5-0.1c-11.6-0.8-20.3-10.9-19.4-22.4c0.5-6.6,4.1-12.7,9.8-16.3l2.1,3.4
			c-4.6,2.9-7.5,7.8-7.9,13.2c-0.7,9.4,6.4,17.5,15.7,18.2c9.3,0.7,17.5-6.4,18.2-15.7c0.3-4.5-1.1-8.9-4.1-12.3s-7.1-5.5-11.6-5.8
			l0.3-4c5.6,0.4,10.7,3,14.4,7.2s5.5,9.7,5.1,15.2C5108.1,44.6,5098.9,53,5088,53.1z"/>
		<g>
			<polygon class="st0" points="5075.9,27.9 5075.9,17.9 5065.9,18 5065.9,14 5079.9,13.9 5079.9,27.9 			"/>
		</g>
	</g>
</g>
<g id="percent">
	<g>
		<path class="st0" d="M5011.7,30.8c-3,0-5.7-1.2-7.8-3.3c-4.3-4.3-4.3-11.4,0-15.7c2.1-2.1,4.9-3.2,7.8-3.2c3,0,5.7,1.2,7.8,3.2
			c4.3,4.3,4.3,11.4,0,15.7C5017.4,29.6,5014.7,30.8,5011.7,30.8z M5011.7,12.6c-1.9,0-3.7,0.7-5,2.1c-2.8,2.8-2.8,7.3,0,10.1
			c1.3,1.3,3.1,2.1,5,2.1s3.7-0.7,5-2.1c2.8-2.8,2.8-7.3,0-10C5015.4,13.3,5013.6,12.6,5011.7,12.6z"/>
		<path class="st0" d="M5036.3,55.4c-3,0-5.7-1.2-7.8-3.2c-4.3-4.3-4.3-11.3,0-15.7c2.1-2.1,4.9-3.2,7.8-3.2c3,0,5.7,1.2,7.8,3.2
			c2.1,2.1,3.2,4.9,3.2,7.8s-1.2,5.7-3.2,7.8C5042.1,54.3,5039.3,55.4,5036.3,55.4z M5036.3,37.3c-1.9,0-3.7,0.7-5,2.1
			c-2.8,2.8-2.8,7.2,0,10c1.3,1.3,3.1,2.1,5,2.1s3.7-0.7,5-2.1c1.3-1.3,2.1-3.1,2.1-5s-0.7-3.7-2.1-5
			C5040,38,5038.2,37.3,5036.3,37.3z"/>
		
			<rect x="4997" y="30.5" transform="matrix(0.7061 -0.7081 0.7081 0.7061 1453.4357 3566.9148)" class="st0" width="53.6" height="4"/>
	</g>
</g>
<g id="display-dock">
	<g>
		<path class="st0" d="M4986,57h-52V7h52V57z M4938,53h44V11h-44V53z"/>
		<g>
			<rect x="4934" y="19" class="st0" width="12.5" height="4"/>
			<rect x="4952.9" y="19" class="st0" width="14.3" height="4"/>
			<rect x="4973.5" y="19" class="st0" width="12.5" height="4"/>
		</g>
		<g>
			<rect x="4934" y="41" class="st0" width="12.5" height="4"/>
			<rect x="4952.9" y="41" class="st0" width="14.3" height="4"/>
			<rect x="4973.5" y="41" class="st0" width="12.5" height="4"/>
		</g>
	</g>
</g>
<g id="display-separated">
	<g>
		<path class="st0" d="M4922,45h-44V11h44V45z M4882,41h36V15h-36V41z"/>
		<polygon class="st0" points="4918,53 4870,53 4870,15 4874,15 4874,49 4918,49 		"/>
	</g>
</g>
<g id="minimize">
	<g>
		<g>
			
				<rect x="4808.7" y="44.7" transform="matrix(0.7071 -0.7071 0.7071 0.7071 1377.917 3419.9253)" class="st0" width="17" height="4"/>
			<polygon class="st0" points="4826,53.2 4822,53.2 4822,42 4810.8,42 4810.8,38 4826,38 			"/>
		</g>
		<g>
			
				<rect x="4837.9" y="15.5" transform="matrix(0.7071 -0.7071 0.7071 0.7071 1407.0963 3432.0361)" class="st0" width="17" height="4"/>
			<polygon class="st0" points="4853.1,26 4838,26 4838,10.8 4842,10.8 4842,22 4853.1,22 			"/>
		</g>
		<g>
			
				<rect x="4815.2" y="9" transform="matrix(0.7071 -0.7071 0.7071 0.7071 1398.531 3411.3828)" class="st0" width="4" height="17"/>
			<polygon class="st0" points="4825.9,26 4810.7,26 4810.7,22 4821.9,22 4821.9,10.9 4825.9,10.9 			"/>
		</g>
		<g>
			
				<rect x="4844.4" y="38.1" transform="matrix(0.7071 -0.7071 0.7071 0.7071 1386.4989 3440.5515)" class="st0" width="4" height="17"/>
			<polygon class="st0" points="4841.9,53.2 4837.9,53.2 4837.9,38 4853.1,38 4853.1,42 4841.9,42 			"/>
		</g>
	</g>
</g>
<g id="maximize">
	<g>
		<g>
			
				<rect x="4772.7" y="17.5" transform="matrix(0.7071 -0.7071 0.7071 0.7071 1386.606 3386.5034)" class="st0" width="17" height="4"/>
			<polygon class="st0" points="4790,26 4786,26 4786,14.8 4774.8,14.8 4774.8,10.8 4790,10.8 			"/>
		</g>
		<g>
			
				<rect x="4779.3" y="36.2" transform="matrix(0.7071 -0.7071 0.7071 0.7071 1368.7983 3393.9724)" class="st0" width="4" height="17"/>
			<polygon class="st0" points="4790,53.2 4774.8,53.2 4774.8,49.2 4786,49.2 4786,38 4790,38 			"/>
		</g>
		<g>
			
				<rect x="4752.7" y="11.1" transform="matrix(0.7071 -0.7071 0.7071 0.7071 1378.7423 3367.801)" class="st0" width="4" height="17"/>
			<polygon class="st0" points="4750.4,26 4746.4,26 4746.4,10.8 4761.5,10.8 4761.5,14.8 4750.4,14.8 			"/>
		</g>
		<g>
			
				<rect x="4746.3" y="42.7" transform="matrix(0.7071 -0.7071 0.7071 0.7071 1361.0243 3375.2214)" class="st0" width="17" height="4"/>
			<polygon class="st0" points="4761.6,53.2 4746.4,53.2 4746.4,38 4750.4,38 4750.4,49.2 4761.6,49.2 			"/>
		</g>
	</g>
</g>
<g id="import-export">
	<g>
		<rect x="4681.5" y="18" class="st0" width="45" height="4"/>
		<polygon class="st0" points="4718,31.4 4715.1,28.6 4723.7,20 4715.2,11.5 4718,8.6 4729.3,20 		"/>
		<rect x="4681.5" y="42" class="st0" width="45" height="4"/>
		<polygon class="st0" points="4690,55.4 4678.7,44 4690.1,32.6 4692.9,35.5 4684.3,44 4692.8,52.6 		"/>
	</g>
</g>
<g id="followings">
	<g>
		<path class="st0" d="M4656,39h-42V13h42V39z M4618,35h34V17h-34V35z"/>
		<path class="st0" d="M4666,51h-42V25h42V51z M4628,47h34V29h-34V47z"/>
	</g>
</g>
<g id="sign-out">
	<g>
		<polygon class="st0" points="4589,56 4553,56 4553,8 4589,8 4589,12 4557,12 4557,52 4589,52 		"/>
		<rect x="4565" y="30" class="st0" width="32" height="4"/>
		<polygon class="st0" points="4588.5,43.4 4585.6,40.6 4594.2,32 4585.7,23.5 4588.5,20.7 4599.8,32 		"/>
	</g>
</g>
<g id="sign-in">
	<g>
		<polygon class="st0" points="4536,56 4500,56 4500,52 4532,52 4532,12 4500,12 4500,8 4536,8 		"/>
		<rect x="4490" y="30" class="st0" width="32" height="4"/>
		<polygon class="st0" points="4513.5,43.4 4510.6,40.6 4519.2,32 4510.7,23.5 4513.5,20.6 4524.8,32 		"/>
	</g>
</g>
<g id="hand">
	<g>
		<path class="st0" d="M4437,40h-4V14c0-3.3,2.7-6,6-6s6,2.7,6,6v18h-4V14c0-1.1-0.9-2-2-2s-2,0.9-2,2V40z"/>
		<path class="st0" d="M4453,32h-4v-6.5c0-0.8-0.9-1.5-2-1.5s-2,0.7-2,1.5h-4c0-3,2.7-5.5,6-5.5s6,2.5,6,5.5V32z"/>
		<path class="st0" d="M4461,32h-4v-4.5c0-0.8-0.9-1.5-2-1.5s-2,0.7-2,1.5h-4c0-3,2.7-5.5,6-5.5s6,2.5,6,5.5V32z"/>
		<path class="st0" d="M4433.7,20c-1.8-1.5-2.8-3.7-2.8-6.1c0-4.4,3.6-8,8-8s8,3.6,8,8c0,2.3-1,4.5-2.7,6l-2.7-3
			c0.9-0.8,1.3-1.9,1.3-3c0-2.2-1.8-4-4-4s-4,1.8-4,4c0,1.2,0.5,2.3,1.4,3L4433.7,20z"/>
		<path class="st0" d="M4444.9,58c-0.7,0-4.4-0.1-8.1-2.3c-2.6-1.5-6.5-5.8-8.2-8.2c-1-1.5-2-4.3-1.3-7.3c1.1-4.2,5.9-8,6.5-8.4
			l2.4,3.2l-1.2-1.6l1.2,1.6c-1.2,0.9-4.4,3.8-5,6.2c-0.4,1.8,0.2,3.4,0.7,4c1.6,2.3,5.1,6,6.9,7.1c3,1.8,6.1,1.7,6.1,1.7h10.1
			c5.5,0,10-4.5,10-10V29.5c0-0.8-0.9-1.5-2-1.5s-2,0.7-2,1.5h-4c0-3,2.7-5.5,6-5.5s5.9,2.4,6,5.4l0,0V44c0,7.7-6.3,14-14,14H4444.9
			L4444.9,58z"/>
	</g>
</g>
<g id="excel">
	<g>
		<rect x="4384" y="14" class="st0" width="24" height="4"/>
		<rect x="4384" y="46" class="st0" width="24" height="4"/>
		<rect x="4404" y="14" class="st0" width="4" height="36"/>
		<path class="st0" d="M4388,56.5l-28-5.8V13.4l28-5.8V56.5z M4364,47.4l20,4.2V12.5l-20,4.2V47.4z"/>
		<rect x="4394" y="20" class="st0" width="8" height="4"/>
		<rect x="4394" y="26" class="st0" width="8" height="4"/>
		<rect x="4394" y="32" class="st0" width="8" height="4"/>
		<rect x="4394" y="38" class="st0" width="8" height="4"/>
		<rect x="4384" y="38" class="st0" width="8" height="4"/>
		<rect x="4384" y="32" class="st0" width="8" height="4"/>
		<rect x="4384" y="26" class="st0" width="8" height="4"/>
		<rect x="4384" y="20" class="st0" width="8" height="4"/>
		<polygon class="st0" points="4366.1,24 4370.7,23.4 4372.6,29.6 4375.3,23.4 4379.8,22 4375.1,32 4379.8,41.9 4375.5,41.4 
			4372.6,34.1 4369.8,40 4366.1,40 4370.4,31.9 		"/>
	</g>
</g>
<g id="palette">
	<g>
		<path class="st0" d="M4320,58h-3.6c-2.4,0-4.3-1.1-5.1-3c-1-2.3-0.1-5.4,2.1-7.6c1.9-1.9,1.5-5.5-0.9-7.9
			c-1.3-1.3-3.1-2.1-4.8-2.1c-0.9,0-2.1,0.2-3.1,1.2c-1.5,1.5-3.4,2.3-5.3,2.3c-3.1,0-5.2-2.2-5.2-5.2v-3.6
			c0-14.3,11.6-25.9,25.9-25.9s25.9,11.6,25.9,25.9S4334.3,58,4320,58z M4307.6,33.4c2.8,0,5.5,1.2,7.6,3.3c4,4,4.4,10.1,0.9,13.6
			c-1.1,1.1-1.5,2.5-1.2,3.2c0.1,0.4,0.6,0.5,1.4,0.5h3.6c12.1,0,21.9-9.8,21.9-21.9s-9.8-21.9-21.9-21.9S4298,20,4298,32.1v3.6
			c0,0.6,0.1,1.2,1.2,1.2c0.8,0,1.7-0.4,2.4-1.1C4303.2,34.2,4305.3,33.4,4307.6,33.4z"/>
		<path class="st0" d="M4316,14.1c-2.2,0-4,1.8-4,4s1.8,4,4,4s4-1.8,4-4S4318.2,14.1,4316,14.1L4316,14.1z"/>
		<path class="st0" d="M4330,18.1c-2.2,0-4,1.8-4,4s1.8,4,4,4s4-1.8,4-4S4332.2,18.1,4330,18.1L4330,18.1z"/>
		<path class="st0" d="M4334,32.2c-2.2,0-4,1.8-4,4s1.8,4,4,4s4-1.8,4-4S4336.2,32.2,4334,32.2L4334,32.2z"/>
		<path class="st0" d="M4325.9,42.2c-2.2,0-4,1.8-4,4s1.8,4,4,4s4-1.8,4-4S4328.1,42.2,4325.9,42.2L4325.9,42.2z"/>
		<path class="st0" d="M4305.9,22.2c-2.2,0-4,1.8-4,4s1.8,4,4,4s4-1.8,4-4S4308.1,22.2,4305.9,22.2L4305.9,22.2z"/>
	</g>
</g>
<g id="flag-pencil">
	<g>
		<path class="st0" d="M4238.7,56.5h-4V3.6l41.4,18.9l-37.4,17V56.5z M4238.7,9.9v25.2l27.7-12.6L4238.7,9.9z"/>
		<g>
			
				<rect x="4268.6" y="34.9" transform="matrix(0.707 -0.7072 0.7072 0.707 1224.4845 3031.2793)" class="st0" width="4" height="5.9"/>
			<path class="st0" d="M4251.1,57.2l1.8-8.7l16-16c0.8-0.8,2-1.3,3.1-1.3s2.3,0.5,3.1,1.3l0.7,0.7c1.7,1.7,1.7,4.5,0,6.3l-16,16
				L4251.1,57.2z M4256.6,50.5l-0.3,1.6l1.7-0.3l15.1-15.1c0.2-0.2,0.2-0.5,0-0.6l-0.7-0.7c-0.2-0.2-0.4-0.2-0.6,0L4256.6,50.5z"/>
		</g>
	</g>
</g>
<g id="flag-plus">
	<g>
		<path class="st0" d="M4176.7,57h-4V4.1l41.4,18.9l-37.4,17V57z M4176.7,10.4v25.2l27.7-12.6L4176.7,10.4z"/>
		<rect x="4200" y="37" class="st0" width="4" height="20"/>
		<rect x="4192" y="45" class="st0" width="20" height="4"/>
	</g>
</g>
<g id="flag">
	<path class="st0" d="M4113,56.8h-4V3.9l41.4,18.9l-37.4,17V56.8z M4113,10.1v25.2l27.7-12.6L4113,10.1z"/>
</g>
<g id="edit-column">
	<g>
		<path class="st0" d="M4079.9,51.9c-1.6,0-3.1-0.6-4.2-1.8l-18.8-18.8l-2.1-10.6l10.6,2.1l18.8,18.8c2.3,2.3,2.3,6.1,0,8.5
			C4083,51.3,4081.5,51.9,4079.9,51.9z M4060.5,29.4l18,18c0.8,0.8,2.1,0.8,2.8,0c0.8-0.8,0.8-2,0-2.8l-18-18l-3.5-0.7L4060.5,29.4z
			"/>
		<polygon class="st0" points="4066,60 4042,60 4042,4 4066,4 4066,24 4062,24 4062,8 4046,8 4046,56 4062,56 4062,36 4066,36 		"/>
	</g>
</g>
<g id="large-block">
	<g>
		<path class="st0" d="M3998,30h-26V4h26V30z M3976,26h18V8h-18V26z"/>
		<path class="st0" d="M4028,30h-26V4h26V30z M4006,26h18V8h-18V26z"/>
		<path class="st0" d="M3998,60h-26V34h26V60z M3976,56h18V38h-18V56z"/>
		<path class="st0" d="M4028,60h-26V34h26V60z M4006,56h18V38h-18V56z"/>
	</g>
</g>
<g id="small-blocks">
	<g>
		<path class="st0" d="M3944,40h-16V24h16V40z M3932,36h8v-8h-8V36z"/>
		<path class="st0" d="M3964,40h-16V24h16V40z M3952,36h8v-8h-8V36z"/>
		<path class="st0" d="M3924,40h-16V24h16V40z M3912,36h8v-8h-8V36z"/>
		<path class="st0" d="M3944,20h-16V4h16V20z M3932,16h8V8h-8V16z"/>
		<path class="st0" d="M3964,20h-16V4h16V20z M3952,16h8V8h-8V16z"/>
		<path class="st0" d="M3924,20h-16V4h16V20z M3912,16h8V8h-8V16z"/>
		<path class="st0" d="M3944,60h-16V44h16V60z M3932,56h8v-8h-8V56z"/>
		<path class="st0" d="M3964,60h-16V44h16V60z M3952,56h8v-8h-8V56z"/>
		<path class="st0" d="M3924,60h-16V44h16V60z M3912,56h8v-8h-8V56z"/>
	</g>
</g>
<g id="data-grid">
	<g>
		<path class="st0" d="M3894,54h-44V10h44V54z M3854,50h36V14h-36V50z"/>
		<rect x="3850" y="20" class="st0" width="44" height="4"/>
		<rect x="3850" y="30" class="st0" width="44" height="4"/>
		<rect x="3850" y="40" class="st0" width="44" height="4"/>
		<rect x="3860" y="10" class="st0" width="4" height="44"/>
		<rect x="3870" y="10" class="st0" width="4" height="44"/>
		<rect x="3880" y="10" class="st0" width="4" height="44"/>
	</g>
</g>
<g id="pie-chart">
	<g>
		<path class="st0" d="M3807.1,58c-14.3,0-26-11.7-26-26s11.7-26,26-26c5.1,0,10,1.5,14.3,4.3l-2.2,3.3c-3.6-2.4-7.8-3.6-12.1-3.6
			c-12.1,0-22,9.9-22,22s9.9,22,22,22s22-9.9,22-22c0-3.4-0.8-6.7-2.3-9.8l3.6-1.8c1.8,3.6,2.7,7.5,2.7,11.5
			C3833.1,46.4,3821.4,58,3807.1,58z"/>
		<path class="st0" d="M3811.6,29.4l9.6-24.4l2,1c5.1,2.7,9.3,7.1,11.6,12.4l0.9,1.9L3811.6,29.4z M3823.2,10.7l-4.6,11.8l11.6-4.3
			C3828.5,15.2,3826.1,12.6,3823.2,10.7z"/>
		<rect x="3805.1" y="8" class="st0" width="4" height="24"/>
		<rect x="3783.1" y="30" class="st0" width="24" height="4"/>
		
			<rect x="3813.1" y="28.7" transform="matrix(0.7071 -0.7071 0.7071 0.7071 1088.8209 2709.5278)" class="st0" width="4" height="23.5"/>
	</g>
</g>
<g id="forecast">
	<g>
		<polygon class="st0" points="3772,59 3716,59 3716,6 3720,6 3720,55 3772,55 		"/>
		<path class="st0" d="M3751.2,40.7c-9.8,0-17.8-8-17.8-17.8s8-17.8,17.8-17.8s17.8,8,17.8,17.8S3761,40.7,3751.2,40.7z M3751.2,9
			c-7.6,0-13.8,6.2-13.8,13.8s6.2,13.8,13.8,13.8s13.8-6.2,13.8-13.8S3758.8,9,3751.2,9z"/>
		<path class="st0" d="M3751.2,27.7L3751.2,27.7h-2v-4h2c1.8,0,3.3-1.5,3.3-3.3s-1.5-3.3-3.3-3.3s-3.3,1.5-3.3,3.3h-4
			c0-4,3.3-7.3,7.3-7.3s7.3,3.3,7.3,7.3c0,3.3-2.3,6.2-5.3,7v0.3h-1.4C3751.6,27.7,3751.4,27.7,3751.2,27.7z"/>
		<rect x="3749.2" y="30.7" class="st0" width="4" height="2.4"/>
		
			<rect x="3762.8" y="33.9" transform="matrix(0.7071 -0.7071 0.7071 0.7071 1074.5621 2673.7356)" class="st0" width="4" height="11.8"/>
		<rect x="3725" y="22" class="st0" width="4" height="30"/>
		<rect x="3734" y="38" class="st0" width="4" height="14"/>
		<rect x="3743" y="45" class="st0" width="4" height="7"/>
		<rect x="3752" y="47" class="st0" width="4" height="5"/>
		<rect x="3761" y="49" class="st0" width="4" height="3"/>
	</g>
</g>
<g id="manage">
	<g>
		<rect x="3678" y="21" class="st0" width="4" height="11"/>
		<rect x="3678" y="32" class="st0" width="4" height="10"/>
		<polygon class="st0" points="3701,42 3697,42 3697,34 3663,34 3663,42 3659,42 3659,30 3701,30 		"/>
		<path class="st0" d="M3688,23h-16V7h16V23z M3676,19h8v-8h-8V19z"/>
		<path class="st0" d="M3688,57h-16V41h16V57z M3676,53h8v-8h-8V53z"/>
		<path class="st0" d="M3707,57h-16V41h16V57z M3695,53h8v-8h-8V53z"/>
		<path class="st0" d="M3669,57h-16V41h16V57z M3657,53h8v-8h-8V53z"/>
	</g>
</g>
<g id="plan">
	<g>
		<path class="st0" d="M3640,57h-48V13h48V57z M3596,53h40V17h-40V53z"/>
		<rect x="3614" y="9" class="st0" width="4" height="12"/>
		<rect x="3628" y="9" class="st0" width="4" height="12"/>
		<rect x="3600" y="9" class="st0" width="4" height="12"/>
		<polygon class="st0" points="3613,43.9 3606,36.9 3608.9,34.1 3613,38.3 3622.2,29.1 3625.1,31.9 		"/>
	</g>
</g>
<g id="schedule">
	<g>
		<path class="st0" d="M3540.8,37.7c-8.8,0-15.9-7.1-15.9-15.9s7.1-15.9,15.9-15.9s15.9,7.1,15.9,15.9S3549.6,37.7,3540.8,37.7z
			 M3540.8,9.9c-6.5,0-11.9,5.3-11.9,11.9s5.3,11.9,11.9,11.9s11.9-5.3,11.9-11.9S3547.4,9.9,3540.8,9.9z"/>
		<polygon class="st0" points="3538.5,29.3 3535.7,26.5 3539,23.2 3539,14 3543,14 3543,24.8 		"/>
		<rect x="3549" y="45" class="st0" width="4" height="4"/>
		<rect x="3541" y="45" class="st0" width="4" height="4"/>
		<rect x="3557" y="45" class="st0" width="4" height="4"/>
		<rect x="3549" y="37" class="st0" width="4" height="4"/>
		<rect x="3557" y="37" class="st0" width="4" height="4"/>
		<rect x="3565" y="37" class="st0" width="4" height="4"/>
		<rect x="3557" y="29" class="st0" width="4" height="4"/>
		<rect x="3565" y="29" class="st0" width="4" height="4"/>
		<polygon class="st0" points="3579,58 3531,58 3531,34 3535,34 3535,54 3575,54 3575,18 3554,18 3554,14 3579,14 		"/>
		<rect x="3567" y="10" class="st0" width="4" height="12"/>
	</g>
</g>
<g id="calendar">
	<g>
		<path class="st0" d="M3512,57h-48V13h48V57z M3468,53h40V17h-40V53z"/>
		<rect x="3486" y="9" class="st0" width="4" height="12"/>
		<rect x="3500" y="9" class="st0" width="4" height="12"/>
		<rect x="3472" y="9" class="st0" width="4" height="12"/>
		<rect x="3482" y="43" class="st0" width="4" height="4"/>
		<rect x="3474" y="43" class="st0" width="4" height="4"/>
		<rect x="3490" y="43" class="st0" width="4" height="4"/>
		<rect x="3482" y="35" class="st0" width="4" height="4"/>
		<rect x="3474" y="35" class="st0" width="4" height="4"/>
		<rect x="3490" y="35" class="st0" width="4" height="4"/>
		<rect x="3498" y="35" class="st0" width="4" height="4"/>
		<rect x="3482" y="27" class="st0" width="4" height="4"/>
		<rect x="3490" y="27" class="st0" width="4" height="4"/>
		<rect x="3498" y="27" class="st0" width="4" height="4"/>
	</g>
</g>
<g id="clock">
	<g>
		<path class="st0" d="M3423.9,56c-13.2,0-24-10.8-24-24s10.8-24,24-24s24,10.8,24,24S3437.1,56,3423.9,56z M3423.9,12
			c-11,0-20,9-20,20s9,20,20,20s20-9,20-20S3434.9,12,3423.9,12z"/>
		<rect x="3400.1" y="30" class="st0" width="5.8" height="4"/>
		<rect x="3442" y="30" class="st0" width="5.8" height="4"/>
		<rect x="3421.9" y="8.2" class="st0" width="4" height="5.8"/>
		<rect x="3421.9" y="50" class="st0" width="4" height="5.8"/>
		<polygon class="st0" points="3430.2,40.9 3422,32.7 3422,18.1 3426,18.1 3426,31 3433.1,38.1 		"/>
	</g>
</g>
<g id="bell">
	<g>
		<path class="st0" d="M3374,47h-4V27c0-5.5-4.5-10-10-10s-10,4.5-10,10v20h-4V27c0-7.7,6.3-14,14-14s14,6.3,14,14V47z"/>
		<rect x="3342" y="45" class="st0" width="36" height="4"/>
		<path class="st0" d="M3360,59c-4.4,0-8-3.6-8-8h4c0,2.2,1.8,4,4,4s4-1.8,4-4h4C3368,55.4,3364.4,59,3360,59z"/>
		<rect x="3358" y="7" class="st0" width="4" height="8"/>
	</g>
</g>
<g id="lock">
	<g>
		<path class="st0" d="M3316,57h-40V25h40V57z M3280,53h32V29h-32V53z"/>
		<path class="st0" d="M3311,26.5h-4v-9c0-3.9-3.6-7-8-7h-6c-4.4,0-8,3.1-8,7v9h-4v-9c0-6.1,5.4-11,12-11h6c6.6,0,12,4.9,12,11V26.5
			z"/>
		<rect x="3294" y="40" class="st0" width="4" height="7"/>
		<rect x="3293" y="36" class="st0" width="6" height="4"/>
	</g>
</g>
<g id="users">
	<g>
		<g>
			<path class="st0" d="M3232,41.3c-5,0-9.1-4.1-9.1-9.1s4.1-9.1,9.1-9.1s9.1,4.1,9.1,9.1S3237,41.3,3232,41.3z M3232,27.1
				c-2.8,0-5.1,2.3-5.1,5.1s2.3,5.1,5.1,5.1s5.1-2.3,5.1-5.1C3237.1,29.3,3234.8,27.1,3232,27.1z"/>
			<path class="st0" d="M3245.7,51h-4c0-5.3-4.3-9.6-9.6-9.6s-9.6,4.3-9.6,9.6h-4c0-7.5,6.1-13.6,13.6-13.6S3245.7,43.5,3245.7,51z"
				/>
		</g>
		<g>
			<path class="st0" d="M3214.8,25.7c-4.4,0-8-3.6-8-8s3.6-8,8-8s8,3.6,8,8S3219.2,25.7,3214.8,25.7z M3214.8,13.8c-2.2,0-4,1.8-4,4
				s1.8,4,4,4s4-1.8,4-4S3217,13.8,3214.8,13.8z"/>
			<path class="st0" d="M3207,33.6h-4c0-6.5,5.3-11.8,11.8-11.8c2.8,0,5.6,1,7.7,2.9l-2.6,3c-1.4-1.2-3.2-1.9-5.1-1.9
				C3210.5,25.8,3207,29.3,3207,33.6z"/>
		</g>
		<g>
			<path class="st0" d="M3249.3,25.7c-4.4,0-8-3.6-8-8s3.6-8,8-8s8,3.6,8,8S3253.7,25.7,3249.3,25.7z M3249.3,13.8c-2.2,0-4,1.8-4,4
				s1.8,4,4,4s4-1.8,4-4S3251.5,13.8,3249.3,13.8z"/>
			<g>
				<path class="st1" d="M3242.9,26.2"/>
				<path class="st0" d="M3261,33.6h-4c0-4.3-3.5-7.8-7.8-7.8c-1.9,0-3.7,0.7-5.1,1.9l-2.6-3c2.1-1.9,4.9-2.9,7.7-2.9
					C3255.8,21.8,3261,27.1,3261,33.6z"/>
			</g>
		</g>
	</g>
</g>
<g id="user">
	<g>
		<path class="st0" d="M3168,35.9c-7.1,0-12.9-5.8-12.9-12.9s5.8-12.9,12.9-12.9c7.1,0,12.9,5.8,12.9,12.9S3175.2,35.9,3168,35.9z
			 M3168,14c-4.9,0-8.9,4-8.9,8.9s4,8.9,8.9,8.9s8.9-4,8.9-8.9S3172.9,14,3168,14z"/>
		<path class="st0" d="M3187.9,52h-4c0-8.8-7.1-15.9-15.9-15.9c-8.8,0-15.9,7.1-15.9,15.9h-4c0-11,8.9-19.9,19.9-19.9
			S3187.9,41,3187.9,52z"/>
	</g>
</g>
<g id="filter">
	<g>
		<rect x="3082" y="9" class="st0" width="44" height="4"/>
		<rect x="3098" y="31" class="st0" width="12" height="4"/>
		<polygon class="st0" points="3098,57 3098,31 3102,31 3102,49 3106,46 3106,31 3110,31 3110,48 		"/>
		<rect x="3082" y="9" class="st0" width="4" height="6"/>
		<rect x="3122" y="9" class="st0" width="4" height="6"/>
		<rect x="3089.6" y="11" transform="matrix(0.77 -0.638 0.638 0.77 695.4566 1978.13)" class="st0" width="4" height="26.7"/>
		
			<rect x="3101.9" y="22.5" transform="matrix(0.6381 -0.7699 0.7699 0.6381 1108.4438 2407.416)" class="st0" width="26.7" height="4"/>
	</g>
</g>
<g id="sorting-options">
	<g>
		<path class="st0" d="M3028,40.1c-4.4,0-8-3.6-8-8s3.6-8,8-8s8,3.6,8,8C3036.1,36.5,3032.5,40.1,3028,40.1z M3028,28
			c-2.2,0-4,1.8-4,4s1.8,4,4,4s4-1.8,4-4C3032.1,29.8,3030.3,28,3028,28z"/>
		<rect x="3034" y="30" class="st0" width="34" height="4"/>
		<rect x="3012" y="30" class="st0" width="10" height="4"/>
		<path class="st0" d="M3052,20.1c-4.4,0-8-3.6-8-8s3.6-8,8-8s8,3.6,8,8C3060.1,16.5,3056.5,20.1,3052,20.1z M3052,8
			c-2.2,0-4,1.8-4,4s1.8,4,4,4s4-1.8,4-4C3056.1,9.8,3054.3,8,3052,8z"/>
		<rect x="3058" y="10" class="st0" width="10" height="4"/>
		<rect x="3012" y="10" class="st0" width="34" height="4"/>
		<path class="st0" d="M3052,60.1c-4.4,0-8-3.6-8-8s3.6-8,8-8s8,3.6,8,8C3060.1,56.5,3056.5,60.1,3052,60.1z M3052,48
			c-2.2,0-4,1.8-4,4s1.8,4,4,4s4-1.8,4-4C3056.1,49.8,3054.3,48,3052,48z"/>
		<rect x="3058" y="50" class="st0" width="10" height="4"/>
		<rect x="3012" y="50" class="st0" width="34" height="4"/>
	</g>
</g>
<g id="cog_1_">
	<g>
		<path class="st0" d="M2976,42.1c-5.5,0-10-4.5-10-10s4.5-10,10-10s10,4.5,10,10S2981.5,42.1,2976,42.1z M2976,26c-3.3,0-6,2.7-6,6
			s2.7,6,6,6s6-2.7,6-6S2979.3,26,2976,26z"/>
		<path class="st0" d="M2981.7,58h-11.3l-1.4-7.3c-2-0.8-3.9-1.8-5.6-3.2l-7,2.4l-5.6-9.8l5.6-4.9c-0.2-1.1-0.3-2.2-0.3-3.3
			c0-1.1,0.1-2.1,0.3-3.2l-5.6-4.9l5.6-9.8l7,2.4c1.7-1.4,3.6-2.5,5.6-3.3l1.4-7.3h11.3l1.4,7.3c2,0.8,3.9,1.9,5.6,3.3l7-2.4
			l5.6,9.8l-5.6,4.9c0.2,1.1,0.3,2.1,0.3,3.2s-0.1,2.1-0.3,3.2l5.6,4.9l-5.6,9.8l-7.1-2.4c-1.7,1.4-3.6,2.5-5.6,3.2L2981.7,58z
			 M2973.7,54h4.7l1.2-6.4l1.1-0.4c2.3-0.7,4.3-1.9,6.1-3.5l0.9-0.8l6.2,2.1l2.4-4.1l-4.9-4.3l0.3-1.2c0.3-1.2,0.4-2.4,0.4-3.5
			c0-1.1-0.1-2.3-0.4-3.5l-0.3-1.2l4.9-4.3l-2.4-4.1l-6.1,2.1l-0.9-0.8c-1.8-1.6-3.9-2.9-6.1-3.6l-1.1-0.4l-1.2-6.3h-4.7l-1.2,6.3
			l-1.1,0.4c-2.3,0.7-4.4,1.9-6.2,3.6l-0.9,0.8l-6.1-2.1l-2.4,4.1l4.9,4.2l-0.3,1.2c-0.3,1.2-0.4,2.4-0.4,3.5c0,1.2,0.1,2.4,0.4,3.6
			l0.3,1.2l-4.9,4.2l2.4,4.1l6.1-2.1l0.9,0.8c1.8,1.7,3.9,2.8,6.1,3.5l1.1,0.4L2973.7,54z"/>
	</g>
</g>
<g id="download">
	<g>
		<polygon class="st0" points="2912,47.7 2900.7,36.3 2903.5,33.5 2912,42 2920.5,33.5 2923.3,36.3 		"/>
		<rect x="2910" y="9" class="st0" width="4" height="35"/>
		<rect x="2888" y="53" class="st0" width="48" height="4"/>
	</g>
</g>
<g id="upload">
	<g>
		<polygon class="st0" points="2856.5,23.3 2848,14.8 2839.5,23.3 2836.7,20.5 2848,9.2 2859.3,20.5 		"/>
		<rect x="2846" y="13" class="st0" width="4" height="34"/>
		<rect x="2824" y="53" class="st0" width="48" height="4"/>
	</g>
</g>
<g id="paste">
	<g>
		<path class="st0" d="M2806.1,59h-28V27h28V59z M2782.1,55h20V31h-20V55z"/>
		<polygon class="st0" points="2794.1,21 2770.1,21 2770.1,11 2774.1,11 2774.1,17 2790.1,17 2790.1,11 2794.1,11 		"/>
		<path class="st0" d="M2780.1,55h-18V9h14.3c0.8-2.3,3.1-4,5.7-4s4.8,1.7,5.7,4h14.3v20h-4V13h-14v-2c0-1.1-0.9-2-2-2s-2,0.9-2,2v2
			h-14v38h14V55z"/>
	</g>
</g>
<g id="copy">
	<g>
		<polygon class="st0" points="2710,48 2696,48 2696,8 2728,8 2728,14 2724,14 2724,12 2700,12 2700,44 2710,44 		"/>
		<path class="st0" d="M2744,56h-32V16h32V56z M2716,52h24V20h-24V52z"/>
	</g>
</g>
<g id="camera">
	<g>
		<rect x="2630" y="48" class="st0" width="52" height="4"/>
		<rect x="2630" y="16" class="st0" width="4" height="36"/>
		<rect x="2678" y="16" class="st0" width="4" height="36"/>
		<polygon class="st0" points="2682,20 2666,20 2663,16 2649,16 2646,20 2630,20 2630,16 2644,16 2647,12 2665,12 2668,16 2682,16 
					"/>
		<path class="st0" d="M2656,46c-6.7,0-12.2-5.5-12.2-12.2s5.5-12.2,12.2-12.2s12.2,5.5,12.2,12.2C2668.2,40.6,2662.7,46,2656,46z
			 M2656,25.7c-4.5,0-8.2,3.7-8.2,8.2s3.7,8.2,8.2,8.2s8.2-3.7,8.2-8.2S2660.5,25.7,2656,25.7z"/>
		<path class="st0" d="M2640,21.8c-1.2,0-2.2,1-2.2,2.2s1,2.2,2.2,2.2s2.2-1,2.2-2.2S2641.2,21.8,2640,21.8L2640,21.8z"/>
	</g>
</g>
<g id="file-text">
	<g>
		<g>
			<path class="st0" d="M2612,58.5h-40v-53h26.8l13.2,13.2V58.5z M2576,54.5h32V20.3l-10.8-10.8H2576V54.5z"/>
			<polygon class="st0" points="2610,22.5 2596,22.5 2596,7.5 2600,7.5 2600,18.5 2610,18.5 			"/>
		</g>
		<rect x="2581" y="26" class="st0" width="22" height="4"/>
		<rect x="2581" y="34" class="st0" width="22" height="4"/>
		<rect x="2581" y="42" class="st0" width="22" height="4"/>
	</g>
</g>
<g id="file">
	<g>
		<path class="st0" d="M2548,59h-40V6h26.8l13.2,13.2V59z M2512,55h32V20.8L2533.2,10H2512V55z"/>
		<polygon class="st0" points="2546,23 2532,23 2532,8 2536,8 2536,19 2546,19 		"/>
	</g>
</g>
<g id="folder-delete">
	<g>
		<g>
			<polygon class="st0" points="2481.4,31.8 2478.2,29.4 2482,24.3 2482,6 2486,6 2486,25.7 			"/>
			<path class="st0" d="M2482,58h-40V6h44v4h-8v14.3l4,5V58z M2446,54h32V30.7l-4-5V10h-28V54z"/>
		</g>
		<rect x="2460" y="23" transform="matrix(0.7071 -0.7071 0.7071 0.7071 698.4724 1750.2513)" class="st0" width="4" height="18"/>
		<rect x="2453" y="30" transform="matrix(0.7071 -0.7071 0.7071 0.7071 698.4724 1750.2513)" class="st0" width="18" height="4"/>
	</g>
</g>
<g id="folder-plus">
	<g>
		<g>
			<polygon class="st0" points="2417.4,31.8 2414.2,29.4 2418,24.3 2418,6 2422,6 2422,25.7 			"/>
			<path class="st0" d="M2418,58h-40V6h44v4h-8v14.3l4,5V58z M2382,54h32V30.7l-4-5V10h-28V54z"/>
		</g>
		<rect x="2396" y="23" class="st0" width="4" height="18"/>
		<rect x="2389" y="30" class="st0" width="18" height="4"/>
	</g>
</g>
<g id="folder-ok">
	<g>
		<g>
			<polygon class="st0" points="2353.4,31.8 2350.2,29.4 2354,24.3 2354,6 2358,6 2358,25.7 			"/>
			<path class="st0" d="M2354,58h-40V6h44v4h-8v14.3l4,5V58z M2318,54h32V30.7l-4-5V10h-28V54z"/>
		</g>
		<polygon class="st0" points="2329.3,41.4 2322.3,34.4 2325.1,31.5 2329.3,35.7 2339.7,25.3 2342.5,28.2 		"/>
	</g>
</g>
<g id="folder">
	<g>
		<polygon class="st0" points="2289.4,31.8 2286.2,29.4 2290,24.3 2290,6 2294,6 2294,25.7 		"/>
		<path class="st0" d="M2290,58h-40V6h44v4h-8v14.3l4,5V58z M2254,54h32V30.7l-4-5V10h-28V54z"/>
	</g>
</g>
<g id="folder-opened">
	<path class="st0" d="M2214,60l-28-5.8V4.5h44v21l-4,3v26h-12V60z M2190,50.9l20,4.2V34.5l-4-3V13.1l-16-4V50.9z M2214,50.5h8v-24
		l4-3v-15h-21.8l5.8,1.4v19.6l4,3V50.5z"/>
</g>
<g id="save">
	<g>
		<rect x="2122" y="10" class="st0" width="4" height="44"/>
		<rect x="2122" y="50" class="st0" width="44" height="4"/>
		<rect x="2130" y="32" class="st0" width="28" height="4"/>
		<rect x="2132" y="22" class="st0" width="24" height="4"/>
		<rect x="2132" y="10" class="st0" width="4" height="16"/>
		<rect x="2152" y="10" class="st0" width="4" height="16"/>
		<rect x="2144" y="10" class="st0" width="4" height="8"/>
		<rect x="2154" y="32" class="st0" width="4" height="22"/>
		<rect x="2130" y="32" class="st0" width="4" height="22"/>
		<polygon class="st0" points="2166,54 2162,54 2162,20.8 2155.1,14 2122,14 2122,10 2156.8,10 2166,19.2 		"/>
	</g>
</g>
<g id="trashcan">
	<g>
		<rect x="2058" y="14" class="st0" width="44" height="4"/>
		<rect x="2078" y="24" class="st0" width="4" height="22"/>
		<rect x="2084" y="24" class="st0" width="4" height="22"/>
		<rect x="2072" y="24" class="st0" width="4" height="22"/>
		<polygon class="st0" points="2095.8,56 2064.1,56 2060.3,16.2 2064.3,15.9 2067.8,52 2092.1,52 2095.6,15.9 2099.6,16.3 		"/>
		<path class="st0" d="M2088,16h-4v-3c0-0.5-0.5-1-1-1h-6c-0.5,0-1,0.5-1,1v3h-4v-3c0-2.8,2.2-5,5-5h6c2.8,0,5,2.2,5,5V16z"/>
	</g>
</g>
<g id="pencil">
	<g>
		
			<rect x="2026.9" y="13.2" transform="matrix(0.7071 -0.7071 0.7071 0.7071 580.6653 1440.2581)" class="st0" width="4" height="12"/>
		<path class="st0" d="M2006.7,52.2l-3.9-0.8c0-0.1,0.4-2.5-1.5-4.5c-2-2-4.5-1.6-4.6-1.6l-0.7-3.9c0.2,0,4.7-0.9,8.2,2.7
			C2007.6,47.6,2006.8,52,2006.7,52.2z"/>
		<path class="st0" d="M1991.5,56.4l2.9-14l32.2-32.2c1.3-1.3,3.1-2,4.9-2s3.6,0.7,4.9,2l1.4,1.4c1.3,1.3,2,3.1,2,4.9
			s-0.7,3.6-2,4.9l-32.3,32.3L1991.5,56.4z M1998.1,44.3l-1.5,7l7.1-1.4l31.4-31.4c0.6-0.6,0.9-1.3,0.9-2.1s-0.3-1.6-0.9-2.1
			l-1.4-1.4c-1.1-1.1-3.1-1.1-4.2,0L1998.1,44.3z"/>
	</g>
</g>
<g id="zoom-out">
	<g>
		<path class="st0" d="M1957,46.7c-11.1,0-20.1-9-20.1-20.1s9-20.1,20.1-20.1s20.1,9,20.1,20.1S1968.1,46.7,1957,46.7z M1957,10.5
			c-8.9,0-16.1,7.2-16.1,16.1s7.2,16.1,16.1,16.1s16.1-7.2,16.1-16.1S1965.9,10.5,1957,10.5z"/>
		
			<rect x="1923.4" y="45.4" transform="matrix(0.7071 -0.7071 0.7071 0.7071 533.6813 1383.2184)" class="st0" width="26.3" height="4"/>
		<rect x="1949" y="24.6" class="st0" width="16" height="4"/>
	</g>
</g>
<g id="zoom-in">
	<g>
		<path class="st0" d="M1893,47c-11.1,0-20.1-9-20.1-20.1s9-20.1,20.1-20.1s20.1,9,20.1,20.1S1904.1,47,1893,47z M1893,10.9
			c-8.9,0-16.1,7.2-16.1,16.1s7.3,16,16.1,16c8.9,0,16.1-7.2,16.1-16.1S1901.9,10.9,1893,10.9z"/>
		
			<rect x="1859.4" y="45.8" transform="matrix(0.7071 -0.7071 0.7071 0.7071 514.6598 1338.0747)" class="st0" width="26.3" height="4"/>
		<rect x="1891" y="19" class="st0" width="4" height="16"/>
		<rect x="1885" y="25" class="st0" width="16" height="4"/>
	</g>
</g>
<g id="search">
	<g>
		<path class="st0" d="M1829,47.2c-11.1,0-20.1-9-20.1-20.1C1809,16,1818,7,1829,7c11.1,0,20.1,9,20.1,20.1S1840.1,47.2,1829,47.2z
			 M1829,11c-8.9,0-16.1,7.2-16.1,16.1s7.2,16.1,16.1,16.1s16.1-7.2,16.1-16.1S1837.9,11,1829,11z"/>
		
			<rect x="1795.4" y="45.9" transform="matrix(0.7071 -0.7071 0.7071 0.7071 495.8376 1292.8561)" class="st0" width="26.3" height="4"/>
	</g>
</g>
<g id="dots-vertical">
	<g>
		<path class="st0" d="M1760,38.1c-3.3,0-6-2.7-6-6s2.7-6,6-6s6,2.7,6,6S1763.3,38.1,1760,38.1z M1760,30.1c-1.1,0-2,0.9-2,2
			s0.9,2,2,2s2-0.9,2-2S1761.1,30.1,1760,30.1z"/>
		<path class="st0" d="M1760,56.1c-3.3,0-6-2.7-6-6s2.7-6,6-6s6,2.7,6,6S1763.3,56.1,1760,56.1z M1760,48.1c-1.1,0-2,0.9-2,2
			s0.9,2,2,2s2-0.9,2-2S1761.1,48.1,1760,48.1z"/>
		<path class="st0" d="M1760,20.1c-3.3,0-6-2.7-6-6s2.7-6,6-6s6,2.7,6,6S1763.3,20.1,1760,20.1z M1760,12.1c-1.1,0-2,0.9-2,2
			s0.9,2,2,2s2-0.9,2-2S1761.1,12.1,1760,12.1z"/>
	</g>
</g>
<g id="dots-horizontal">
	<g>
		<path class="st0" d="M1696,38.1c-3.3,0-6-2.7-6-6s2.7-6,6-6s6,2.7,6,6S1699.3,38.1,1696,38.1z M1696,30.1c-1.1,0-2,0.9-2,2
			s0.9,2,2,2s2-0.9,2-2S1697.1,30.1,1696,30.1z"/>
		<path class="st0" d="M1678,38.1c-3.3,0-6-2.7-6-6s2.7-6,6-6s6,2.7,6,6S1681.3,38.1,1678,38.1z M1678,30.1c-1.1,0-2,0.9-2,2
			s0.9,2,2,2s2-0.9,2-2S1679.1,30.1,1678,30.1z"/>
		<path class="st0" d="M1714,38.1c-3.3,0-6-2.7-6-6s2.7-6,6-6s6,2.7,6,6S1717.3,38.1,1714,38.1z M1714,30.1c-1.1,0-2,0.9-2,2
			s0.9,2,2,2s2-0.9,2-2S1715.1,30.1,1714,30.1z"/>
	</g>
</g>
<g id="minus-rect">
	<g>
		<rect x="1610" y="10" class="st0" width="44" height="4"/>
		<rect x="1610" y="10" class="st0" width="4" height="44"/>
		<rect x="1610" y="50" class="st0" width="44" height="4"/>
		<rect x="1650" y="10" class="st0" width="4" height="44"/>
		<rect x="1622" y="30" class="st0" width="20" height="4"/>
	</g>
</g>
<g id="plus-rect">
	<g>
		<rect x="1546" y="10" class="st0" width="44" height="4"/>
		<rect x="1546" y="10" class="st0" width="4" height="44"/>
		<rect x="1546" y="50" class="st0" width="44" height="4"/>
		<rect x="1586" y="10" class="st0" width="4" height="44"/>
		<rect x="1566" y="22" class="st0" width="4" height="20"/>
		<rect x="1558" y="30" class="st0" width="20" height="4"/>
	</g>
</g>
<g id="dollar-circle">
	<g>
		<path class="st0" d="M1504,60c-15.4,0-28-12.6-28-28s12.6-28,28-28s28,12.6,28,28S1519.4,60,1504,60z M1504,8
			c-13.2,0-24,10.8-24,24s10.8,24,24,24s24-10.8,24-24S1517.2,8,1504,8z"/>
		<path class="st0" d="M1504.1,46.2c-4.5,0-8.1-3.6-8.1-8.1h4c0,2.3,1.8,4.1,4.1,4.1c2.3,0,4.1-1.8,4.1-4.1s-1.8-4.1-4.1-4.1h-0.4
			c-4.3-0.1-7.7-3.7-7.7-8.1c0-4.5,3.6-8.1,8.1-8.1s8.1,3.6,8.1,8.1h-4c0-2.3-1.8-4.1-4.1-4.1c-2.3,0-4.1,1.8-4.1,4.1s1.7,4.1,4,4.1
			h0.4c4.4,0.1,7.9,3.7,7.9,8.1C1512.3,42.6,1508.6,46.2,1504.1,46.2z"/>
		<rect x="1502.2" y="42.4" class="st0" width="4" height="7.3"/>
		<rect x="1502.2" y="14.4" class="st0" width="4" height="7.3"/>
	</g>
</g>
<g id="info-circle">
	<g>
		<path class="st0" d="M1440,60c-15.4,0-28-12.6-28-28s12.6-28,28-28s28,12.6,28,28S1455.4,60,1440,60z M1440,8
			c-13.2,0-24,10.8-24,24s10.8,24,24,24s24-10.8,24-24S1453.2,8,1440,8z"/>
		<rect x="1438" y="19" class="st0" width="4" height="4"/>
		<rect x="1438" y="28" class="st0" width="4" height="16"/>
		<rect x="1432" y="40" class="st0" width="16" height="4"/>
		<rect x="1434" y="28" class="st0" width="6" height="4"/>
	</g>
</g>
<g id="exclamation-circle">
	<g>
		<path class="st0" d="M1376,60c-15.4,0-28-12.6-28-28s12.6-28,28-28s28,12.6,28,28S1391.4,60,1376,60z M1376,8
			c-13.2,0-24,10.8-24,24s10.8,24,24,24s24-10.8,24-24S1389.2,8,1376,8z"/>
		<rect x="1374" y="45" class="st0" width="4" height="4"/>
		<rect x="1374" y="17" class="st0" width="4" height="23"/>
	</g>
</g>
<g id="question-circle">
	<g>
		<path class="st0" d="M1312,60c-15.4,0-28-12.6-28-28s12.6-28,28-28s28,12.6,28,28S1327.4,60,1312,60z M1312,8
			c-13.2,0-24,10.8-24,24s10.8,24,24,24s24-10.8,24-24S1325.2,8,1312,8z"/>
		<path class="st0" d="M1314,40h-4v-5.2h2c3.7,0,6.8-3,6.8-6.7s-3-6.7-6.7-6.7s-6.7,3-6.7,6.7h-4c0-5.9,4.8-10.7,10.7-10.7
			c5.9,0,10.7,4.8,10.7,10.7c0,5.2-3.8,9.6-8.8,10.6V40z"/>
		<rect x="1310" y="45" class="st0" width="4" height="4"/>
	</g>
</g>
<g id="delete-circle">
	<g>
		<path class="st0" d="M1248.1,60c-15.4,0-28-12.6-28-28s12.6-28,28-28s28,12.6,28,28S1263.5,60,1248.1,60z M1248.1,8
			c-13.2,0-24,10.8-24,24s10.8,24,24,24s24-10.8,24-24S1261.3,8,1248.1,8z"/>
		<g>
			
				<rect x="1236.7" y="30" transform="matrix(0.7071 -0.7071 0.7071 0.7071 342.8941 891.8043)" class="st0" width="22.5" height="4"/>
			
				<rect x="1246" y="20.7" transform="matrix(0.7071 -0.7071 0.7071 0.7071 342.9299 891.8248)" class="st0" width="4" height="22.5"/>
		</g>
	</g>
</g>
<g id="ok-circle">
	<g>
		<path class="st0" d="M1184.1,60c-15.4,0-28-12.6-28-28s12.6-28,28-28s28,12.6,28,28S1199.5,60,1184.1,60z M1184.1,8
			c-13.2,0-24,10.8-24,24s10.8,24,24,24s24-10.8,24-24S1197.3,8,1184.1,8z"/>
		<polygon class="st0" points="1180.1,42.6 1172,34.5 1174.8,31.7 1180.1,37 1192.9,24.2 1195.8,27 		"/>
	</g>
</g>
<g id="minus-circle">
	<g>
		<path class="st0" d="M1120.1,60c-15.4,0-28-12.6-28-28s12.6-28,28-28s28,12.6,28,28S1135.5,60,1120.1,60z M1120.1,8
			c-13.2,0-24,10.8-24,24s10.8,24,24,24s24-10.8,24-24S1133.3,8,1120.1,8z"/>
		<rect x="1110" y="30" class="st0" width="20" height="4"/>
	</g>
</g>
<g id="plus-circle">
	<g>
		<path class="st0" d="M1056.1,60c-15.4,0-28-12.6-28-28s12.6-28,28-28s28,12.6,28,28S1071.5,60,1056.1,60z M1056.1,8
			c-13.2,0-24,10.8-24,24s10.8,24,24,24s24-10.8,24-24S1069.3,8,1056.1,8z"/>
		<g>
			<rect x="1054" y="22" class="st0" width="4" height="20"/>
			<rect x="1046" y="30" class="st0" width="20" height="4"/>
		</g>
	</g>
</g>
<g id="arrow-down-circle">
	<g>
		<path class="st0" d="M992,60c-15.4,0-28-12.6-28-28s12.6-28,28-28s28,12.6,28,28S1007.4,60,992,60z M992,8c-13.2,0-24,10.8-24,24
			s10.8,24,24,24s24-10.8,24-24S1005.2,8,992,8z"/>
		<polygon class="st0" points="992,45.7 980.7,34.3 983.5,31.5 992,40 1000.5,31.5 1003.3,34.3 		"/>
		<rect x="990" y="21" class="st0" width="4" height="21"/>
	</g>
</g>
<g id="arrow-up-circle">
	<g>
		<path class="st0" d="M928,60c-15.4,0-28-12.6-28-28s12.6-28,28-28s28,12.6,28,28S943.4,60,928,60z M928,8c-13.2,0-24,10.8-24,24
			s10.8,24,24,24s24-10.8,24-24S941.2,8,928,8z"/>
		<polygon class="st0" points="936.5,32.5 928,24 919.5,32.5 916.7,29.7 928,18.3 939.3,29.7 		"/>
		<rect x="926" y="22" class="st0" width="4" height="21"/>
	</g>
</g>
<g id="arrow-right-circle">
	<g>
		<path class="st0" d="M864,60L864,60c-15.4,0-28-12.6-28-28s12.6-28,28-28s28,12.6,28,28S879.4,60,864,60z M864,8
			c-13.2,0-24,10.8-24,24s10.8,24,24,24s24-10.8,24-24S877.2,8,864,8z"/>
		<polygon class="st0" points="866.3,43.3 863.5,40.5 872,32 863.5,23.5 866.3,20.7 877.7,32 		"/>
		<rect x="853" y="30" class="st0" width="21" height="4"/>
	</g>
</g>
<g id="arrow-left-circle">
	<g>
		<path class="st0" d="M800,60c-15.4,0-28-12.6-28-28s12.6-28,28-28s28,12.6,28,28S815.4,60,800,60z M800,8c-13.2,0-24,10.8-24,24
			s10.8,24,24,24s24-10.8,24-24S813.2,8,800,8z"/>
		<polygon class="st0" points="797.7,43.3 786.3,32 797.7,20.7 800.5,23.5 792,32 800.5,40.5 		"/>
		<rect x="790" y="30" class="st0" width="21" height="4"/>
	</g>
</g>
<g id="caret-down-circle">
	<g>
		<path class="st0" d="M736,60c-15.4,0-28-12.6-28-28s12.6-28,28-28s28,12.6,28,28S751.5,60,736,60z M736,8c-13.2,0-24,10.8-24,24
			s10.8,24,24,24s24-10.8,24-24S749.3,8,736,8z"/>
		<polygon class="st0" points="736.2,41.2 724.8,29.9 727.7,27 736.2,35.5 744.6,27 747.5,29.8 		"/>
	</g>
</g>
<g id="caret-up-circle">
	<g>
		<path class="st0" d="M672,60c-15.4,0-28-12.6-28-28s12.6-28,28-28s28,12.6,28,28S687.5,60,672,60z M672,8.1c-13.2,0-24,10.8-24,24
			s10.8,24,24,24s24-10.8,24-24C696,18.8,685.3,8.1,672,8.1z"/>
		<polygon class="st0" points="680.4,37 671.9,28.5 663.5,37 660.6,34.2 671.9,22.9 683.3,34.2 		"/>
	</g>
</g>
<g id="caret-right-circle">
	<g>
		<path class="st0" d="M608,60c-15.4,0-28-12.6-28-28s12.6-28,28-28s28,12.6,28,28S623.4,60,608,60z M608,8c-13.2,0-24,10.8-24,24
			s10.8,24,24,24s24-10.8,24-24S621.2,8,608,8z"/>
		<polygon class="st0" points="606.3,43.2 603.5,40.4 612,31.9 603.5,23.4 606.3,20.6 617.7,31.9 		"/>
	</g>
</g>
<g id="caret-left-circle">
	<g>
		<path class="st0" d="M544,60c-15.4,0-28-12.6-28-28s12.6-28,28-28s28,12.6,28,28S559.4,60,544,60z M544,8c-13.2,0-24,10.8-24,24
			s10.8,24,24,24s24-10.8,24-24S557.2,8,544,8z"/>
		<polygon class="st0" points="545.7,43.4 534.3,32.1 545.7,20.8 548.5,23.6 540,32.1 548.5,40.6 		"/>
	</g>
</g>
<g id="delete">
	<g>
		<rect x="460" y="30" transform="matrix(0.7071 -0.7071 0.7071 0.7071 117.9626 348.784)" class="st0" width="40" height="4"/>
		<rect x="478" y="12" transform="matrix(0.7071 -0.7071 0.7071 0.7071 117.9625 348.7838)" class="st0" width="4" height="40"/>
	</g>
</g>
<g id="ok">
	<polygon class="st0" points="409.6,49.6 395.5,35.5 398.3,32.7 409.6,44 435.1,18.5 437.9,21.3 	"/>
</g>
<g id="minus">
	<rect x="332" y="30" class="st0" width="40" height="4"/>
</g>
<g id="plus">
	<g>
		<rect x="286" y="12" class="st0" width="4" height="40"/>
		<rect x="268" y="30" class="st0" width="40" height="4"/>
	</g>
</g>
<g id="caret-down">
	<polygon class="st0" points="224,46.7 206.3,29 209.1,26.2 224,41.1 238.8,26.2 241.7,29 	"/>
</g>
<g id="caret-up">
	<polygon class="st0" points="174.9,37.8 160,23 145.2,37.8 142.3,35 160,17.3 177.7,35 	"/>
</g>
<g id="caret-right">
	<polygon class="st0" points="93,49.7 90.2,46.9 105,32 90.2,17.2 93,14.3 110.7,32 	"/>
</g>
<g id="caret-left">
	<polygon class="st0" points="35,49.7 17.3,32 35,14.3 37.8,17.2 23,32 37.8,46.9 	"/>
</g>
</svg>
