<?xml version="1.0" encoding="utf-8"?>
<!-- Generator: Adobe Illustrator 16.0.2, SVG Export Plug-In . SVG Version: 6.00 Build 0)  -->
<!DOCTYPE svg PUBLIC "-//W3C//DTD SVG 1.1//EN" "http://www.w3.org/Graphics/SVG/1.1/DTD/svg11.dtd">
<svg version="1.1" id="Слой_1" xmlns="http://www.w3.org/2000/svg" xmlns:xlink="http://www.w3.org/1999/xlink" x="0px" y="0px"
	 width="1280px" height="64px" viewBox="0 0 1280 64" enable-background="new 0 0 1280 64" xml:space="preserve" preserveAspectRatio="none">
<g id="icon-temporary-unavailable">
	<path fill="#FFFFFF" d="M862.113,55.199c-12.785,0-23.188-10.402-23.188-23.188c0-12.786,10.402-23.188,23.188-23.188
		s23.188,10.402,23.188,23.188h-1c0-12.234-9.953-22.188-22.188-22.188s-22.188,9.953-22.188,22.188s9.953,22.188,22.188,22.188
		c2.552,0,5.053-0.43,7.436-1.275l0.334,0.941C867.394,54.751,864.779,55.199,862.113,55.199z"/>
	<path fill="#FFFFFF" d="M862.447,38.14h-0.787c-1.356,0-2.554-1.1-2.669-2.45l-1.447-16.866c-0.058-0.672,0.154-1.307,0.597-1.789
		s1.057-0.747,1.73-0.747h4.365c0.674,0,1.288,0.265,1.73,0.747s0.654,1.117,0.597,1.788l-1.447,16.866
		C865.001,37.04,863.804,38.14,862.447,38.14z M859.871,17.288c-0.391,0-0.743,0.15-0.994,0.423c-0.25,0.273-0.37,0.638-0.337,1.027
		l1.447,16.865c0.071,0.833,0.837,1.536,1.673,1.536h0.787c0.836,0,1.602-0.703,1.673-1.536l1.447-16.866
		c0.033-0.389-0.087-0.753-0.337-1.026c-0.251-0.273-0.604-0.423-0.994-0.423H859.871z"/>
	<path fill="#FFFFFF" d="M862.125,47.202c-1.843,0-3.343-1.5-3.343-3.343c0-1.844,1.5-3.344,3.343-3.344
		c1.844,0,3.344,1.5,3.344,3.344C865.469,45.702,863.969,47.202,862.125,47.202z M862.125,41.516c-1.292,0-2.343,1.052-2.343,2.344
		s1.051,2.343,2.343,2.343s2.344-1.051,2.344-2.343S863.417,41.516,862.125,41.516z"/>
	<path fill="#FFFFFF" d="M880.526,55.199c-5.459,0-9.899-4.44-9.899-9.899c0-5.458,4.44-9.898,9.899-9.898s9.899,4.44,9.899,9.898
		C890.426,50.759,885.985,55.199,880.526,55.199z M880.526,36.401c-4.907,0-8.899,3.992-8.899,8.898
		c0,4.907,3.992,8.899,8.899,8.899s8.899-3.992,8.899-8.899C889.426,40.394,885.434,36.401,880.526,36.401z"/>
	
		<rect x="880.671" y="47.358" transform="matrix(0.7073 0.7069 -0.7069 0.7073 292.298 -610.2399)" fill="#FFFFFF" width="4.805" height="1"/>
	<rect x="879.999" y="37.627" fill="#FFFFFF" width="1" height="6.425"/>
	<rect x="872.915" y="44.798" fill="#FFFFFF" width="2.843" height="1"/>
	<rect x="885.236" y="44.798" fill="#FFFFFF" width="2.843" height="1"/>
	<rect x="879.997" y="50.037" fill="#FFFFFF" width="1" height="2.844"/>
	<path fill="#FFFFFF" d="M880.545,46.989c-0.929,0-1.685-0.756-1.685-1.685s0.756-1.685,1.685-1.685s1.685,0.756,1.685,1.685
		S881.474,46.989,880.545,46.989z M880.545,44.62c-0.378,0-0.685,0.307-0.685,0.685s0.307,0.685,0.685,0.685
		s0.685-0.307,0.685-0.685S880.923,44.62,880.545,44.62z"/>
</g>
<g id="icon-table-filter">
	<rect x="774.708" y="13.05" fill="#FFFFFF" width="45" height="1"/>
	<rect x="774.708" y="13.05" fill="#FFFFFF" width="1" height="35"/>
	<rect x="819.708" y="13.05" fill="#FFFFFF" width="1" height="11"/>
	<rect x="783.708" y="20.05" fill="#FFFFFF" width="1" height="27"/>
	<rect x="792.708" y="20.05" fill="#FFFFFF" width="1" height="27"/>
	<rect x="810.708" y="20.05" fill="#FFFFFF" width="1" height="3"/>
	<rect x="801.708" y="20.05" fill="#FFFFFF" width="1" height="3"/>
	<rect x="774.708" y="20.05" fill="#FFFFFF" width="45" height="1"/>
	<rect x="775.708" y="29.05" fill="#FFFFFF" width="21" height="1"/>
	<rect x="775.708" y="38.05" fill="#FFFFFF" width="21" height="1"/>
	<rect x="774.708" y="47.05" fill="#FFFFFF" width="23" height="1"/>
	<rect x="801" y="32.05" fill="#FFFFFF" width="23" height="1"/>
	<polygon fill="#FFFFFF" points="825,32.55 824,32.55 824,28.05 801,28.05 801,32.55 800,32.55 800,27.05 825,27.05 	"/>
	<polygon fill="#FFFFFF" points="810,56.257 810,44.05 811,44.05 811,53.843 814,50.843 814,44.05 815,44.05 815,51.257 	"/>
	<path fill="#FFFFFF" d="M810.5,44.55c-0.14,0-0.278-0.059-0.377-0.172l-10-11.5c-0.182-0.208-0.159-0.524,0.049-0.706
		c0.208-0.181,0.524-0.159,0.705,0.049l10,11.5c0.182,0.208,0.159,0.524-0.049,0.705C810.733,44.51,810.616,44.55,810.5,44.55z"/>
	<path fill="#FFFFFF" d="M814.5,44.55c-0.116,0-0.233-0.04-0.328-0.123c-0.208-0.181-0.23-0.497-0.049-0.705l10-11.5
		c0.181-0.208,0.496-0.23,0.705-0.049c0.208,0.181,0.23,0.497,0.049,0.706l-10,11.5C814.778,44.491,814.64,44.55,814.5,44.55z"/>
</g>
<g id="icon-user-plus">
	<path fill="#FFFFFF" d="M733.939,35.332c-6.86,0-12.441-5.581-12.441-12.441s5.581-12.441,12.441-12.441
		s12.441,5.581,12.441,12.441S740.8,35.332,733.939,35.332z M733.939,11.449c-6.309,0-11.441,5.133-11.441,11.441
		s5.133,11.441,11.441,11.441s11.441-5.133,11.441-11.441S740.248,11.449,733.939,11.449z"/>
	<path fill="#FFFFFF" d="M716.314,52.942h-1c0-10.27,8.355-18.625,18.625-18.625c3.813,0,7.478,1.145,10.6,3.309l-0.57,0.822
		c-2.953-2.048-6.421-3.131-10.029-3.131C724.221,35.317,716.314,43.224,716.314,52.942z"/>
	<path fill="#FFFFFF" d="M733.939,42.146c-3.493,0-6.336-2.843-6.336-6.336h1c0,2.942,2.394,5.336,5.336,5.336
		s5.336-2.394,5.336-5.336h1C740.275,39.304,737.433,42.146,733.939,42.146z"/>
	<g>
		<rect x="749.959" y="40.241" fill="#FFFFFF" width="1" height="12.75"/>
		<rect x="744.084" y="46.116" fill="#FFFFFF" width="12.75" height="1"/>
	</g>
</g>
<g id="icon-user-cog">
	<path fill="#FFFFFF" d="M669.939,35.332c-6.86,0-12.441-5.581-12.441-12.441s5.581-12.441,12.441-12.441
		s12.441,5.581,12.441,12.441S676.8,35.332,669.939,35.332z M669.939,11.449c-6.309,0-11.441,5.133-11.441,11.441
		s5.133,11.441,11.441,11.441s11.441-5.133,11.441-11.441S676.248,11.449,669.939,11.449z"/>
	<path fill="#FFFFFF" d="M652.314,52.942h-1c0-10.27,8.355-18.625,18.625-18.625c3.813,0,7.478,1.145,10.6,3.309l-0.57,0.822
		c-2.953-2.048-6.421-3.131-10.029-3.131C660.221,35.317,652.314,43.224,652.314,52.942z"/>
	<path fill="#FFFFFF" d="M669.939,42.146c-3.493,0-6.336-2.843-6.336-6.336h1c0,2.942,2.394,5.336,5.336,5.336
		s5.336-2.394,5.336-5.336h1C676.275,39.304,673.433,42.146,669.939,42.146z"/>
	<g>
		<path fill="#FFFFFF" d="M686.436,49.658c-1.565,0-2.84-1.273-2.84-2.839c0-1.564,1.274-2.838,2.84-2.838
			c1.564,0,2.838,1.273,2.838,2.838C689.273,48.385,688,49.658,686.436,49.658z M686.436,44.981c-1.015,0-1.84,0.824-1.84,1.838
			s0.825,1.839,1.84,1.839c1.014,0,1.838-0.825,1.838-1.839S687.449,44.981,686.436,44.981z"/>
		<path fill="#FFFFFF" d="M688.253,54.688h-3.612l-0.143-2.395c-0.661-0.233-1.278-0.589-1.815-1.044l-2.144,1.069l-1.808-3.126
			l1.993-1.317c-0.063-0.349-0.096-0.702-0.096-1.056c0-0.351,0.032-0.701,0.096-1.047l-1.99-1.318l1.805-3.127l2.134,1.071
			c0.539-0.458,1.159-0.816,1.823-1.052l0.145-2.388h3.611l0.145,2.396c0.658,0.237,1.272,0.594,1.807,1.05l2.15-1.077l1.806,3.128
			l-2.012,1.324c0.062,0.342,0.093,0.69,0.093,1.04c0,0.354-0.031,0.705-0.094,1.048l2.013,1.324l-1.807,3.13l-2.146-1.088
			c-0.536,0.457-1.152,0.815-1.813,1.053L688.253,54.688z M685.582,53.688h1.728l0.126-2.153l0.339-0.099
			c0.747-0.217,1.439-0.619,2.003-1.163l0.256-0.247l1.927,0.976l0.861-1.493l-1.806-1.188l0.085-0.343
			c0.093-0.373,0.14-0.763,0.14-1.157c0-0.39-0.047-0.777-0.138-1.151l-0.084-0.343l1.803-1.187l-0.862-1.495l-1.931,0.967
			l-0.255-0.246c-0.561-0.542-1.251-0.943-1.995-1.159l-0.338-0.099l-0.13-2.147h-1.729l-0.13,2.142l-0.34,0.098
			c-0.75,0.215-1.445,0.616-2.012,1.161l-0.255,0.245l-1.912-0.961l-0.863,1.496l1.785,1.183l-0.085,0.342
			c-0.094,0.379-0.142,0.768-0.142,1.155c0,0.392,0.048,0.784,0.142,1.164l0.085,0.343l-1.786,1.181l0.864,1.497l1.922-0.959
			l0.254,0.243c0.564,0.541,1.258,0.939,2.005,1.153l0.341,0.097L685.582,53.688z"/>
	</g>
</g>
<g id="icon-people">
	<path fill="#FFFFFF" d="M603.652,36.126c-0.188,0-0.345-0.005-0.451-0.009c-1.253-0.054-1.626-1.325-1.648-1.99
		c-0.058-0.369,0.096-1.231,1.076-1.758c0.186-0.1,0.751-0.405,3.723-0.405c0.952,0,1.741,0.032,1.843,0.036h0.149
		c0,0,0.841-0.037,1.863-0.037c2.639,0,3.371,0.23,3.692,0.403c0.979,0.527,1.132,1.366,1.067,1.778
		c-0.016,0.608-0.388,1.89-1.641,1.943c-0.103,0.004-0.248,0.008-0.423,0.008c-0.812,0-1.924-0.086-2.619-0.497
		c-1.248-0.736-1.528-1.922-1.572-2.152l-0.022-0.14c-0.008-0.054-0.02-0.135-0.031-0.161c-0.076-0.028-0.273-0.1-0.393-0.142
		c-0.121,0.047-0.333,0.133-0.451,0.202c0.049-0.027,0.034,0.077,0.025,0.14l-0.024,0.158c-0.043,0.225-0.318,1.39-1.573,2.131
		C605.553,36.041,604.453,36.126,603.652,36.126z M606.352,32.964c-2.523,0-3.125,0.219-3.249,0.286
		c-0.605,0.325-0.556,0.782-0.556,0.787c0.007,0.095,0.056,1.053,0.697,1.08c0.097,0.005,0.238,0.009,0.408,0.009
		c0.942,0,1.701-0.129,2.082-0.353c0.901-0.532,1.081-1.363,1.099-1.456l0.016-0.107c0.01-0.07,0.021-0.153,0.042-0.243
		C606.72,32.965,606.539,32.964,606.352,32.964z M609.646,32.966c0.016,0.072,0.025,0.14,0.033,0.198
		c0.034,0.191,0.219,1.045,1.114,1.573c0.385,0.228,1.154,0.358,2.11,0.358c0.158,0,0.289-0.004,0.381-0.008
		c0.649-0.027,0.688-1.026,0.688-1.036c0.009-0.093,0.029-0.494-0.548-0.806c-0.123-0.066-0.721-0.283-3.218-0.283
		C610.011,32.963,609.822,32.964,609.646,32.966z"/>
	<path fill="#FFFFFF" d="M608.1,43.003c-0.457,0-2.299-0.136-4.309-2.103c-1.557-1.521-2.001-2.909-2.121-3.445
		c-0.319-0.252-0.969-0.849-1.258-1.727c-0.36-1.084-0.532-2.05-0.574-3.229c-0.025-0.691,0.255-1.028,0.494-1.189
		c0.58-0.388,1.359-0.055,1.446-0.015c0.252,0.114,0.363,0.41,0.249,0.662c-0.113,0.252-0.413,0.362-0.661,0.25
		c-0.168-0.074-0.415-0.107-0.477-0.066c-0.013,0.009-0.061,0.093-0.052,0.323c0.038,1.08,0.194,1.961,0.523,2.952
		c0.27,0.819,1.028,1.331,1.036,1.336l0.199,0.129l0.025,0.236c0.001,0.011,0.194,1.433,1.868,3.069
		c1.947,1.905,3.608,1.824,3.681,1.815L608.348,42c0.105,0.011,1.769,0.092,3.717-1.814c1.673-1.636,1.867-2.986,1.869-3
		l0.028-0.219l0.183-0.131c0.008-0.006,0.775-0.552,1.051-1.384c0.327-0.989,0.483-1.877,0.521-2.968
		c0.009-0.235-0.04-0.318-0.055-0.328c-0.063-0.043-0.305-0.012-0.479,0.063c-0.252,0.108-0.547-0.006-0.657-0.258
		c-0.109-0.252,0.003-0.545,0.254-0.657c0.088-0.038,0.867-0.365,1.443,0.024c0.239,0.162,0.52,0.5,0.494,1.192
		c-0.042,1.175-0.219,2.176-0.572,3.247c-0.292,0.883-0.948,1.503-1.261,1.76c-0.121,0.517-0.566,1.855-2.12,3.374
		c-2.295,2.246-4.371,2.104-4.456,2.098L608.207,43C608.201,43.001,608.164,43.003,608.1,43.003z"/>
	<path fill="#FFFFFF" d="M615.789,31.177c-0.276,0-0.5-0.224-0.5-0.5c0-0.27,0.013-0.585,0.026-0.933
		c0.075-1.89,0.188-4.747-1.553-6.558c-1.146-1.193-2.991-1.798-5.483-1.798c-2.493,0-4.34,0.605-5.486,1.798
		c-1.741,1.812-1.628,4.668-1.554,6.559c0.014,0.348,0.026,0.662,0.026,0.932c0,0.276-0.224,0.5-0.5,0.5s-0.5-0.224-0.5-0.5
		c0-0.258-0.012-0.56-0.025-0.892c-0.081-2.06-0.205-5.173,1.832-7.292c1.343-1.397,3.431-2.105,6.207-2.105
		c2.775,0,4.862,0.708,6.205,2.104c2.035,2.118,1.912,5.231,1.83,7.291c-0.014,0.333-0.025,0.635-0.025,0.894
		C616.289,30.953,616.065,31.177,615.789,31.177z"/>
	<path fill="#FFFFFF" d="M602.554,32.282c-0.247,0-0.463-0.184-0.495-0.436c-0.154-1.202-0.564-5.189,0.666-6.036
		c0.676-0.463,1.499,0.136,2.368,0.773c0.37,0.272,0.754,0.553,1.105,0.738c0.75,0.396,1.654,0.626,1.875,0.679h0.541
		c0.221-0.053,1.129-0.284,1.877-0.679c0.369-0.194,0.776-0.516,1.169-0.826c0.839-0.662,1.629-1.286,2.304-0.821
		c1.229,0.846,0.819,4.884,0.665,6.102c-0.035,0.274-0.301,0.462-0.559,0.433c-0.274-0.035-0.469-0.285-0.434-0.559
		c0.31-2.443,0.197-4.851-0.24-5.152c-0.147,0.017-0.754,0.496-1.116,0.782c-0.429,0.338-0.872,0.688-1.322,0.926
		c-0.977,0.515-2.13,0.771-2.179,0.782L608.672,29l-0.764-0.012c-0.049-0.011-1.202-0.268-2.177-0.783
		c-0.416-0.219-0.83-0.523-1.23-0.816c-0.389-0.285-1.026-0.753-1.244-0.741c-0.45,0.319-0.481,2.933-0.206,5.07
		c0.035,0.274-0.158,0.524-0.433,0.56C602.597,32.28,602.575,32.282,602.554,32.282z"/>
	<path fill="#FFFFFF" d="M606.463,52.498h-15.51l-0.035-0.462c-0.009-0.113-0.198-2.814,1.388-4.925
		c1.273-1.701,8.363-3.974,9.167-4.227l0.417-0.132L606.463,52.498z M591.91,51.498h12.979l-3.531-7.526
		c-3.041,0.984-7.469,2.693-8.252,3.739C592.107,49.04,591.933,50.704,591.91,51.498z"/>
	<path fill="#FFFFFF" d="M625.531,52.5h-15.506l4.553-9.984l0.413,0.116c0.806,0.228,7.903,2.273,9.185,3.982
		c1.581,2.107,1.395,5.284,1.386,5.418L625.531,52.5z M611.58,51.5h12.99c-0.013-0.902-0.165-2.913-1.195-4.286
		c-0.775-1.034-5.298-2.64-8.243-3.501L611.58,51.5z"/>
	<path fill="#FFFFFF" d="M610.406,52.507c-0.212,0-0.408-0.135-0.477-0.348l-1.397-4.366l1.272-1.431l-1.532-1.247l-1.531,1.246
		l1.271,1.413l-1.399,4.382c-0.085,0.263-0.366,0.404-0.629,0.324c-0.263-0.084-0.408-0.365-0.324-0.629l1.226-3.835l-1.592-1.769
		L608.059,44h0.355l0.21,0.112l2.622,2.135l-1.587,1.784l1.224,3.823c0.084,0.263-0.062,0.544-0.324,0.629
		C610.508,52.499,610.457,52.507,610.406,52.507z"/>
	<path fill="#FFFFFF" d="M622.014,44.089c-0.207,0-0.4-0.129-0.472-0.335l-3.625-10.373c-0.092-0.261,0.046-0.546,0.307-0.637
		c0.263-0.092,0.547,0.046,0.637,0.307l3.625,10.373c0.092,0.261-0.046,0.546-0.307,0.637
		C622.124,44.08,622.068,44.089,622.014,44.089z"/>
	<path fill="#FFFFFF" d="M622.014,44.102c-0.095,0-0.189-0.026-0.273-0.081l-6.092-3.982c-0.231-0.151-0.296-0.461-0.146-0.692
		c0.153-0.231,0.464-0.294,0.692-0.146l6.092,3.982c0.231,0.151,0.296,0.461,0.146,0.692
		C622.336,44.021,622.177,44.102,622.014,44.102z"/>
	<path fill="#FFFFFF" d="M615.896,40.119c-0.127,0-0.253-0.048-0.351-0.144c-0.197-0.194-0.199-0.511-0.006-0.707l1.42-1.442
		c0.194-0.198,0.511-0.199,0.707-0.006c0.197,0.194,0.199,0.511,0.006,0.707l-1.42,1.442
		C616.155,40.069,616.025,40.119,615.896,40.119z"/>
	<path fill="#FFFFFF" d="M617.316,38.677c-0.12,0-0.241-0.043-0.337-0.131l-0.955-0.871c-0.204-0.186-0.219-0.502-0.032-0.706
		c0.187-0.203,0.503-0.219,0.706-0.032l0.955,0.871c0.204,0.186,0.219,0.502,0.032,0.706
		C617.587,38.622,617.452,38.677,617.316,38.677z"/>
	<path fill="#FFFFFF" d="M622.766,44.089c-0.055,0-0.11-0.009-0.165-0.028c-0.261-0.091-0.398-0.376-0.307-0.637l3.625-10.373
		c0.09-0.26,0.375-0.398,0.637-0.307c0.261,0.091,0.398,0.376,0.307,0.637l-3.625,10.373
		C623.166,43.96,622.973,44.089,622.766,44.089z"/>
	<path fill="#FFFFFF" d="M622.766,44.102c-0.163,0-0.322-0.08-0.419-0.227c-0.15-0.231-0.086-0.541,0.146-0.692l6.092-3.982
		c0.229-0.148,0.539-0.086,0.692,0.146c0.15,0.231,0.086,0.541-0.146,0.692l-6.092,3.982
		C622.955,44.075,622.86,44.102,622.766,44.102z"/>
	<path fill="#FFFFFF" d="M628.883,40.119c-0.129,0-0.259-0.05-0.356-0.149l-1.42-1.442c-0.193-0.196-0.191-0.513,0.006-0.707
		c0.197-0.193,0.514-0.192,0.707,0.006l1.42,1.442c0.193,0.196,0.191,0.513-0.006,0.707
		C629.136,40.071,629.01,40.119,628.883,40.119z"/>
	<path fill="#FFFFFF" d="M627.463,38.677c-0.136,0-0.271-0.055-0.369-0.163c-0.187-0.204-0.172-0.52,0.032-0.706l2.6-2.373
		c0.204-0.187,0.521-0.172,0.706,0.032c0.187,0.204,0.172,0.52-0.032,0.706l-2.6,2.373
		C627.704,38.634,627.583,38.677,627.463,38.677z"/>
	<path fill="#FFFFFF" d="M630.08,36.274c-0.099,0-0.197-0.028-0.284-0.089l-3.697-2.559c-0.228-0.157-0.284-0.469-0.127-0.696
		c0.157-0.229,0.469-0.284,0.695-0.126l3.697,2.559c0.228,0.157,0.284,0.469,0.127,0.695
		C630.395,36.199,630.238,36.274,630.08,36.274z"/>
	<path fill="#FFFFFF" d="M617.18,34.613c-0.15,0-0.3-0.068-0.397-0.197c-0.168-0.22-0.125-0.533,0.095-0.7l1.18-0.898
		c0.221-0.167,0.534-0.125,0.7,0.095c0.168,0.22,0.125,0.533-0.095,0.7l-1.18,0.897C617.392,34.58,617.285,34.613,617.18,34.613z"/>
	<path fill="#FFFFFF" d="M635.959,44.199h-16c-0.276,0-0.5-0.224-0.5-0.5s0.224-0.5,0.5-0.5h16c0.276,0,0.5,0.224,0.5,0.5
		S636.235,44.199,635.959,44.199z"/>
	<path fill="#FFFFFF" d="M635.967,44.209c-0.006,0-0.012,0-0.018-0.001c-0.275-0.01-0.491-0.241-0.482-0.517
		c0.001-0.03,0.084-3.034-1.54-4.634c-1.686-1.661-4.418-2.295-4.445-2.302c-0.27-0.061-0.438-0.328-0.377-0.598
		s0.327-0.44,0.598-0.377c0.123,0.027,3.04,0.705,4.926,2.563c1.941,1.912,1.844,5.241,1.839,5.383
		C636.457,43.997,636.235,44.209,635.967,44.209z"/>
	<path fill="#FFFFFF" d="M622.561,33.836c-0.182-0.008-1.421-0.142-4.104-2.513c-1.308-1.158-1.966-2.805-1.993-2.875
		c-0.102-0.256,0.024-0.546,0.281-0.648c0.256-0.102,0.547,0.024,0.648,0.281c0.006,0.015,0.603,1.498,1.727,2.493
		c2.331,2.06,3.4,2.254,3.462,2.263c-0.006-0.008,1.1-0.162,2.98-1.917c2.004-1.876,2.277-3.093,2.279-3.104l0.069-0.332
		l0.335-0.065c0.002,0,0.621-0.126,1.084-0.694c0.271-0.334,0.521-1.168,0.549-1.546c0.031-0.386-0.059-0.762-0.162-0.871
		c-0.232-0.248-0.497-0.204-0.527-0.197l-0.169,0.035l-0.168-0.073c-0.044-0.021-1.099-0.551-1.899-2.015
		c-0.336-0.615-0.568-1.176-0.724-1.616c-0.158,0.178-0.333,0.365-0.51,0.536c-0.598,0.577-1.458,0.945-1.494,0.96l-1.509,0.639
		l0.895-1.373c0.003-0.004,0.178-0.273,0.337-0.623c-0.39,0.272-0.857,0.53-1.364,0.664c-1.304,0.344-2.278,0.196-2.317,0.189
		l-1.229-0.195l1.021-0.709c0.226-0.157,0.87-0.642,1.137-0.998c0.098-0.13,0.164-0.241,0.209-0.335
		c-0.642,0.531-1.748,1.346-3.239,2.068c-1.095,0.531-1.675,2.02-1.68,2.035c-0.099,0.258-0.389,0.387-0.646,0.289
		c-0.258-0.098-0.388-0.386-0.29-0.644c0.029-0.076,0.722-1.874,2.18-2.58c2.247-1.09,3.587-2.429,3.601-2.442l0.275-0.278
		l0.337,0.201c0.194,0.116,0.447,0.391,0.524,0.783c0.091,0.46-0.068,0.966-0.472,1.502c-0.065,0.088-0.143,0.177-0.227,0.266
		c0.175-0.028,0.362-0.067,0.559-0.119c1.046-0.277,1.96-1.318,1.969-1.328l0.522-0.601l0.314,0.73
		c0.041,0.095,0.152,0.431,0.02,1.051c0.457-0.467,0.891-1.027,0.895-1.033l0.668-0.866l0.219,1.072
		c0.002,0.01,0.214,1.024,0.896,2.273c0.495,0.904,1.098,1.364,1.349,1.527c0.347-0.017,0.852,0.077,1.267,0.517
		c0.381,0.405,0.473,1.11,0.431,1.634c-0.039,0.518-0.336,1.565-0.771,2.1c-0.462,0.568-1.026,0.838-1.371,0.959
		c-0.194,0.545-0.78,1.735-2.489,3.335C624.034,33.714,622.705,33.829,622.561,33.836z"/>
	<path fill="#FFFFFF" d="M631.813,36.272c-0.201,0-0.391-0.122-0.466-0.321c-0.049-0.128-0.479-1.392-0.699-6.218
		c-0.037-0.799,0.021-2.282,0.083-3.851c0.073-1.855,0.156-3.957,0.063-4.797c-0.264-2.391-0.961-4.319-1.372-4.925
		c-1.311-1.923-3.581-1.88-3.598-1.879l-0.238,0.006l-0.154-0.181c-0.007-0.008-0.873-0.975-2.529-1.188
		c-1.588-0.204-4.142,0.326-5.489,1.544c-2.762,2.495-2.981,7.138-2.983,7.185c-0.012,0.276-0.252,0.482-0.521,0.479
		c-0.275-0.011-0.49-0.243-0.479-0.519c0.009-0.208,0.235-5.106,3.313-7.887c1.578-1.428,4.436-2.033,6.288-1.794
		c1.617,0.209,2.619,1.006,2.993,1.36c0.705,0.035,2.861,0.311,4.225,2.312c0.454,0.67,1.238,2.654,1.539,5.378
		c0.101,0.915,0.021,2.964-0.058,4.946c-0.062,1.548-0.119,3.01-0.085,3.766c0.213,4.666,0.635,5.903,0.639,5.915
		c0.092,0.259-0.041,0.545-0.299,0.639C631.929,36.263,631.87,36.272,631.813,36.272z"/>
	<path fill="#FFFFFF" d="M596.903,35c-0.004,0-0.006,0-0.008,0h-0.136h-0.001c-0.104,0-2.146-0.03-4.415-2.249
		c-1.57-1.537-2.008-2.983-2.123-3.527c-0.314-0.259-0.965-0.878-1.256-1.756c-0.354-1.069-0.53-2.07-0.574-3.247
		c-0.024-0.693,0.256-1.033,0.495-1.196c0.579-0.393,1.354-0.072,1.438-0.035c0.254,0.11,0.369,0.405,0.259,0.658
		c-0.108,0.253-0.406,0.369-0.657,0.259c-0.169-0.07-0.409-0.1-0.478-0.055c-0.018,0.012-0.066,0.1-0.058,0.333
		c0.04,1.093,0.197,1.981,0.523,2.97c0.273,0.828,1.042,1.377,1.05,1.382l0.189,0.131l0.023,0.229
		c0.002,0.011,0.193,1.502,1.866,3.14c1.966,1.923,3.701,1.964,3.719,1.964h0.141c0.012,0,0.923-0.01,2.159-0.749
		c0.237-0.145,0.544-0.065,0.686,0.172c0.143,0.237,0.064,0.544-0.172,0.686C598.123,34.978,597.015,35,596.903,35z"/>
	<path fill="#FFFFFF" d="M590.361,22.959c-0.276,0-0.5-0.224-0.5-0.5c0-0.254-0.011-0.551-0.021-0.878
		c-0.069-1.994-0.186-5.331,1.812-7.399c1.173-1.214,2.916-1.83,5.181-1.83c2.238,0,3.968,0.602,5.139,1.789
		c1.719,1.741,1.908,4.333,1.881,6.396c-0.004,0.274-0.227,0.494-0.5,0.494c-0.002,0-0.004,0-0.007,0
		c-0.275-0.003-0.497-0.23-0.493-0.506c0.024-1.869-0.135-4.203-1.592-5.681c-0.978-0.989-2.467-1.491-4.428-1.491
		c-1.983,0-3.484,0.513-4.461,1.525c-1.703,1.763-1.601,4.716-1.532,6.67c0.012,0.341,0.022,0.648,0.022,0.913
		C590.861,22.736,590.638,22.959,590.361,22.959z"/>
	<path fill="#FFFFFF" d="M595.063,44.249h-15.509l-0.034-0.464c-0.009-0.119-0.196-2.962,1.389-5.072
		c1.275-1.703,8.365-3.906,9.169-4.152l0.416-0.127L595.063,44.249z M580.513,43.249h12.982l-3.539-7.603
		c-2.948,0.928-7.472,2.63-8.247,3.666C580.695,40.662,580.53,42.424,580.513,43.249z"/>
	<path fill="#FFFFFF" d="M599.986,42.847c-0.07,0-0.142-0.015-0.21-0.046c-0.25-0.116-0.359-0.413-0.244-0.664l1.383-2.993
		c0.116-0.25,0.413-0.358,0.664-0.244c0.25,0.116,0.359,0.413,0.244,0.664l-1.383,2.993
		C600.355,42.739,600.175,42.847,599.986,42.847z"/>
	<path fill="#FFFFFF" d="M594.689,44.244c-0.051,0-0.103-0.008-0.153-0.024c-0.263-0.085-0.407-0.366-0.322-0.629l1.224-3.792
		l-1.614-1.71l2.8-2.089h0.332l0.205,0.1l2.676,1.996l-1.619,1.652l0.99,3.095c0.084,0.263-0.062,0.544-0.324,0.629
		c-0.263,0.081-0.544-0.062-0.629-0.324l-1.174-3.669l1.24-1.266l-1.495-1.116l-1.504,1.123l1.249,1.323l-1.405,4.354
		C595.097,44.109,594.9,44.244,594.689,44.244z"/>
	<path fill="#FFFFFF" d="M592.889,31.45c-0.909,0-1.79-0.634-1.906-0.721c-0.221-0.165-0.267-0.478-0.103-0.699
		c0.166-0.22,0.479-0.268,0.699-0.104c0.246,0.182,1.057,0.661,1.543,0.486c0.216-0.078,0.372-0.315,0.466-0.704
		c0.419-1.738,3.285-1.715,3.61-1.709c0.041,0.003,1.131-0.009,2.078,0.304c0.262,0.086,0.404,0.369,0.317,0.631
		s-0.366,0.407-0.632,0.318c-0.79-0.261-1.74-0.257-1.753-0.253c-0.853-0.013-2.467,0.19-2.648,0.944
		c-0.222,0.917-0.721,1.273-1.1,1.41C593.273,31.421,593.08,31.45,592.889,31.45z"/>
	<path fill="#FFFFFF" d="M597.092,32.023c-1.243,0-2.695-0.328-2.695-1.251c0-0.924,1.452-1.251,2.695-1.251
		s2.695,0.328,2.695,1.251C599.787,31.696,598.335,32.023,597.092,32.023z M595.549,30.772c0.271,0.119,0.808,0.251,1.543,0.251
		s1.272-0.132,1.544-0.251c-0.271-0.119-0.808-0.251-1.544-0.251C596.356,30.521,595.819,30.653,595.549,30.772z"/>
	<path fill="#FFFFFF" d="M590.977,24.929c-0.053,0-0.106-0.008-0.159-0.026c-0.262-0.088-0.402-0.372-0.314-0.634l0.083-0.247
		c0.253-0.74,0.279-0.817,0.372-2.447c0.075-1.337,0.006-2.429-0.032-3.015l-0.02-0.333c-0.046-1.052-0.184-2.571-0.184-2.571
		l0.996-0.09c0,0,0.14,1.546,0.188,2.618l0.018,0.313c0.039,0.607,0.111,1.738,0.032,3.135c-0.097,1.709-0.132,1.861-0.423,2.714
		l-0.083,0.243C591.38,24.797,591.186,24.929,590.977,24.929z"/>
	<path fill="#FFFFFF" d="M602.172,22.104c-0.264,0-0.484-0.206-0.499-0.472c-0.08-1.419-0.007-2.554,0.033-3.164l0.018-0.287
		c0.047-1.07,0.187-2.616,0.187-2.616l0.996,0.09c0,0.003-0.138,1.52-0.184,2.572l-0.019,0.306
		c-0.038,0.588-0.109,1.684-0.033,3.042c0.016,0.275-0.195,0.512-0.471,0.527C602.19,22.103,602.181,22.104,602.172,22.104z"/>
</g>
<g id="icon-line-chart">
	<rect x="519" y="9" fill="#FFFFFF" width="1" height="46"/>
	<rect x="519" y="54" fill="#FFFFFF" width="50" height="1"/>
	
		<rect x="524.259" y="23.926" transform="matrix(0.7367 0.6762 -0.6762 0.7367 159.6626 -346.4466)" fill="#FFFFFF" width="0.999" height="15.798"/>
	
		<rect x="554.234" y="21.485" transform="matrix(0.8542 0.5199 -0.5199 0.8542 97.4676 -283.7808)" fill="#FFFFFF" width="0.999" height="20.83"/>
	
		<rect x="529.887" y="32.958" transform="matrix(0.6452 0.7641 -0.7641 0.6452 217.0679 -400.4741)" fill="#FFFFFF" width="19.593" height="1"/>
	<path fill="#FFFFFF" d="M531.809,27.049c-1.607,0-2.916-1.309-2.916-2.917s1.309-2.917,2.916-2.917s2.916,1.308,2.916,2.917
		S533.416,27.049,531.809,27.049z M531.809,22.215c-1.057,0-1.916,0.86-1.916,1.917c0,1.057,0.859,1.917,1.916,1.917
		s1.916-0.86,1.916-1.917C533.725,23.075,532.865,22.215,531.809,22.215z"/>
	<path fill="#FFFFFF" d="M547.809,45.7c-1.607,0-2.916-1.309-2.916-2.917c0-1.607,1.309-2.916,2.916-2.916s2.916,1.309,2.916,2.916
		C550.725,44.392,549.416,45.7,547.809,45.7z M547.809,40.867c-1.057,0-1.916,0.859-1.916,1.916s0.859,1.917,1.916,1.917
		s1.916-0.86,1.916-1.917S548.865,40.867,547.809,40.867z"/>
	<path fill="#FFFFFF" d="M561.561,23.75c-1.609,0-2.918-1.309-2.918-2.917c0-1.608,1.309-2.916,2.918-2.916
		c1.607,0,2.916,1.308,2.916,2.916C564.477,22.441,563.168,23.75,561.561,23.75z M561.561,18.917c-1.058,0-1.918,0.859-1.918,1.916
		c0,1.057,0.86,1.917,1.918,1.917c1.057,0,1.916-0.86,1.916-1.917C563.477,19.776,562.617,18.917,561.561,18.917z"/>
</g>
<g id="icon-bar-chart">
	<path fill="#FFFFFF" d="M466,53h-11V8h11V53z M456,52h9V9h-9V52z"/>
	<path fill="#FFFFFF" d="M479,53h-11V23h11V53z M469,52h9V24h-9V52z"/>
	<path fill="#FFFFFF" d="M505,53h-11V35h11V53z M495,52h9V36h-9V52z"/>
	<path fill="#FFFFFF" d="M492,53h-11V14h11V53z M482,52h9V15h-9V52z"/>
</g>
<g id="icon-pie-chart">
	<path fill="#FFFFFF" d="M414.959,56.5c-13.51,0-24.5-10.99-24.5-24.5c0-13.509,10.99-24.5,24.5-24.5
		c4.797,0,9.443,1.387,13.437,4.011l-0.549,0.836c-3.83-2.517-8.286-3.847-12.888-3.847c-12.958,0-23.5,10.542-23.5,23.5
		s10.542,23.5,23.5,23.5s23.5-10.542,23.5-23.5c0-3.658-0.817-7.162-2.429-10.416l0.896-0.443c1.681,3.393,2.532,7.046,2.532,10.859
		C439.459,45.51,428.469,56.5,414.959,56.5z"/>
	<path fill="#FFFFFF" d="M422.167,26.778l7.716-19.72l0.495,0.261c4.845,2.557,8.741,6.718,10.97,11.717l0.216,0.486L422.167,26.778
		z M430.403,8.471l-6.488,16.585l16.297-6.097C438.122,14.549,434.668,10.855,430.403,8.471z"/>
	<rect x="414.459" y="8" fill="#FFFFFF" width="1" height="24"/>
	<rect x="390.959" y="31.5" fill="#FFFFFF" width="24" height="1"/>
	
		<rect x="411.514" y="39.816" transform="matrix(0.7071 0.7071 -0.7071 0.7071 152.4825 -287.4925)" fill="#FFFFFF" width="23.522" height="1"/>
</g>
<g id="icon-folder">
	<rect x="331.459" y="7.5" fill="#FFFFFF" width="41" height="1"/>
	<rect x="331.459" y="55.5" fill="#FFFFFF" width="37" height="1"/>
	<rect x="331.459" y="7.5" fill="#FFFFFF" width="1" height="49"/>
	<polygon fill="#FFFFFF" points="368.135,30.554 367.355,29.927 371.459,24.824 371.459,7.5 372.459,7.5 372.459,25.176 	"/>
	<polygon fill="#FFFFFF" points="368.459,56.5 367.459,56.5 367.459,30.175 363.459,25.175 363.459,7.5 364.459,7.5 364.459,24.825 
		368.459,29.825 	"/>
</g>
<g id="icon-table">
	<rect x="263.959" y="13" fill="#FFFFFF" width="45" height="1"/>
	<rect x="263.959" y="13" fill="#FFFFFF" width="1" height="35"/>
	<rect x="308.959" y="13" fill="#FFFFFF" width="1" height="11"/>
	<rect x="272.959" y="20" fill="#FFFFFF" width="1" height="27"/>
	<rect x="281.959" y="20" fill="#FFFFFF" width="1" height="27"/>
	<rect x="299.959" y="20" fill="#FFFFFF" width="1" height="3"/>
	<rect x="290.959" y="20" fill="#FFFFFF" width="1" height="3"/>
	<rect x="263.959" y="20" fill="#FFFFFF" width="45" height="1"/>
	<rect x="264.959" y="29" fill="#FFFFFF" width="21" height="1"/>
	<rect x="264.959" y="38" fill="#FFFFFF" width="21" height="1"/>
	<rect x="263.959" y="47" fill="#FFFFFF" width="23" height="1"/>
	<g>
		<path fill="#FFFFFF" d="M301.75,35.166c-5.555,0-11.459-1.563-11.459-4.458s5.904-4.458,11.459-4.458s11.459,1.563,11.459,4.458
			S307.305,35.166,301.75,35.166z M301.75,27.25c-6.164,0-10.459,1.822-10.459,3.458s4.295,3.458,10.459,3.458
			s10.459-1.822,10.459-3.458S307.914,27.25,301.75,27.25z"/>
		<path fill="#FFFFFF" d="M301.75,40.666c-5.555,0-11.459-1.563-11.459-4.458h1c0,1.636,4.295,3.458,10.459,3.458
			s10.459-1.822,10.459-3.458h1C313.209,39.104,307.305,40.666,301.75,40.666z"/>
		<path fill="#FFFFFF" d="M301.75,46.166c-5.555,0-11.459-1.563-11.459-4.458h1c0,1.636,4.295,3.458,10.459,3.458
			s10.459-1.822,10.459-3.458h1C313.209,44.604,307.305,46.166,301.75,46.166z"/>
		<path fill="#FFFFFF" d="M301.75,51.666c-5.555,0-11.459-1.563-11.459-4.458h1c0,1.636,4.295,3.458,10.459,3.458
			s10.459-1.822,10.459-3.458h1C313.209,50.104,307.305,51.666,301.75,51.666z"/>
		<rect x="290.291" y="30.708" fill="#FFFFFF" width="1" height="16.584"/>
		<rect x="312.191" y="30.708" fill="#FFFFFF" width="1" height="16.604"/>
	</g>
</g>
<g id="icon-schedule">
	<rect x="207.459" y="36.688" fill="#FFFFFF" width="1" height="17.813"/>
	<rect x="247.459" y="17.5" fill="#FFFFFF" width="1" height="37"/>
	<rect x="207.459" y="53.5" fill="#FFFFFF" width="41" height="1"/>
	<rect x="227.247" y="25.5" fill="#FFFFFF" width="21.063" height="1"/>
	<rect x="226.435" y="17.5" fill="#FFFFFF" width="21.875" height="1"/>
	<rect x="237.459" y="15.5" fill="#FFFFFF" width="1" height="5"/>
	<path fill="#FFFFFF" d="M213.834,38.167c-7.927,0-14.375-6.449-14.375-14.375s6.448-14.375,14.375-14.375
		s14.375,6.449,14.375,14.375S221.761,38.167,213.834,38.167z M213.834,10.417c-7.375,0-13.375,6-13.375,13.375
		s6,13.375,13.375,13.375s13.375-6,13.375-13.375S221.209,10.417,213.834,10.417z"/>
	<polygon fill="#FFFFFF" points="211.51,29.174 210.801,28.469 213.459,25.794 213.459,17.5 214.459,17.5 214.459,26.206 	"/>
	<path fill="#FFFFFF" d="M234,41h-5v-5h5V41z M230,40h3v-3h-3V40z"/>
	<path fill="#FFFFFF" d="M242,41h-5v-5h5V41z M238,40h3v-3h-3V40z"/>
	<path fill="#FFFFFF" d="M242,49h-5v-5h5V49z M238,48h3v-3h-3V48z"/>
	<path fill="#FFFFFF" d="M234,49h-5v-5h5V49z M230,48h3v-3h-3V48z"/>
	<path fill="#FFFFFF" d="M226,49h-5v-5h5V49z M222,48h3v-3h-3V48z"/>
	<path fill="#FFFFFF" d="M218,49h-5v-5h5V49z M214,48h3v-3h-3V48z"/>
</g>
<g id="icon-flag-list">
	<path fill="#FFFFFF" d="M167.959,57h-1V34.541l16.77,7.643l-15.77,7.168V57z M167.959,36.096v12.157l13.355-6.071L167.959,36.096z"
		/>
	<rect x="137.959" y="10" fill="#FFFFFF" width="44" height="1"/>
	<rect x="137.959" y="20" fill="#FFFFFF" width="44" height="1"/>
	<rect x="137.959" y="30" fill="#FFFFFF" width="44" height="1"/>
	<rect x="137.959" y="40" fill="#FFFFFF" width="22" height="1"/>
	<rect x="137.959" y="50" fill="#FFFFFF" width="22" height="1"/>
</g>
<g id="icon-phases">
	<polygon fill="#FFFFFF" points="96.76,48.105 96.346,47.195 112.527,39.838 104.17,36.029 104.584,35.119 114.941,39.84 	"/>
	<rect x="95.959" y="39.219" fill="#FFFFFF" width="1" height="17.615"/>
	<polygon fill="#FFFFFF" points="87.807,43.566 87.393,42.656 112.062,31.442 103.198,27.428 103.61,26.517 114.481,31.44 	"/>
	<rect x="86.959" y="34.263" fill="#FFFFFF" width="1" height="22.571"/>
	<path fill="#FFFFFF" d="M78.459,56.834h-1V6.306l36.27,16.528l-35.27,16.032V56.834z M78.459,7.861v29.907l32.855-14.935
		L78.459,7.861z"/>
</g>
<g id="icon-search">
	<path fill="#FFFFFF" d="M37.344,45.427c-10.247,0-18.584-8.337-18.584-18.583c0-10.247,8.337-18.583,18.584-18.583
		c10.246,0,18.582,8.336,18.582,18.583C55.926,37.09,47.59,45.427,37.344,45.427z M37.344,9.26c-9.696,0-17.584,7.888-17.584,17.583
		s7.888,17.583,17.584,17.583c9.694,0,17.582-7.888,17.582-17.583S47.038,9.26,37.344,9.26z"/>
	
		<rect x="15.999" y="35.891" transform="matrix(0.7071 0.7071 -0.7071 0.7071 38.4366 2.2527)" fill="#FFFFFF" width="1" height="23.264"/>
</g>
</svg>
