<?xml version="1.0" encoding="utf-8"?>
<!-- Generator: Adobe Illustrator 16.0.2, SVG Export Plug-In . SVG Version: 6.00 Build 0)  -->
<!DOCTYPE svg PUBLIC "-//W3C//DTD SVG 1.1//EN" "http://www.w3.org/Graphics/SVG/1.1/DTD/svg11.dtd">
<svg version="1.1" xmlns="http://www.w3.org/2000/svg" xmlns:xlink="http://www.w3.org/1999/xlink" x="0px" y="0px" width="832px"
	 height="64px" viewBox="0 0 832 64" enable-background="new 0 0 832 64" xml:space="preserve">
<g id="delete">
	<polygon fill="#FFFFFF" points="818.385,17.857 814.143,13.615 800,27.758 785.857,13.615 781.615,17.857 795.758,32 
		781.615,46.143 785.857,50.385 800,36.242 814.143,50.385 818.385,46.143 804.242,32 	"/>
</g>
<g id="triangle-7">
	<polygon fill="#FFFFFF" points="709.646,22.967 762.479,32.034 709.646,41.161 	"/>
</g>
<g id="triangle-6">
	<polygon fill="#FFFFFF" points="646.174,32.079 695.799,5.125 695.799,58.75 	"/>
</g>
<g id="triangle-5">
	<polygon fill="#FFFFFF" points="587.744,6.3 628.494,6.3 608.148,57.801 	"/>
</g>
<g id="triangle-4">
	<polygon fill="#FFFFFF" points="522.532,4.673 552.996,60.17 563.044,24.39 	"/>
</g>
<g id="triangle-3">
	<polygon fill="#FFFFFF" points="451.986,60.334 474.568,6.72 507.883,4 	"/>
</g>
<g id="triangle-2">
	<polygon fill="#FFFFFF" points="422.633,4.739 388.061,60.162 443.953,45.453 	"/>
</g>
<g id="triangle-1">
	<polygon fill="#FFFFFF" points="380.173,42.409 342.117,18.093 323.966,45.755 	"/>
</g>
<g id="envlope">
	<path fill="#FFFFFF" d="M260.012,10.036v43.921h55.746V10.036H260.012z M307.758,18.036v0.258l-19.759,12.505l-20.026-12.554v-0.21
		H307.758z M267.973,45.957V27.691l20.059,12.555l19.727-12.503v18.214H267.973z"/>
</g>
<g id="linkedin">
	<g id="icon_2_">
		<g>
			<ellipse fill="#FFFFFF" cx="205.127" cy="13.195" rx="6.029" ry="6.058"/>
			<rect x="200.047" y="23.572" fill="#FFFFFF" width="10.149" height="32.772"/>
			<path fill="#FFFFFF" d="M245.059,25.377c-1.692-1.64-4.963-2.616-7.839-2.617c-8.684,0-10.858,5.2-10.858,5.642v-5.067h-9.697
				v33.54h10.211l0.003-18.312c0,0,0.382-6.807,6.709-6.81c4.52-0.002,4.633,5.381,4.633,5.381v19.737h10.346V34.713
				C248.565,34.713,248.708,28.916,245.059,25.377z"/>
		</g>
	</g>
</g>
<g id="twitter">
	<g id="Twitter_1_">
		<path fill="#FFFFFF" d="M139.36,36.477c1.225,4.328,5.206,7.5,9.928,7.5c0.208,0,0.409-0.006,0.61-0.019l-0.106,0.071
			c-3.825,3.029-8.661,4.842-13.927,4.842c-0.856,0-1.7-0.051-2.521-0.143l-0.165-0.117c4.938,3.383,10.893,5.363,17.313,5.363
			c17.042,0,30.811-13.987,30.811-31.251c0-0.577-0.016-1.146-0.045-1.716l0.002,0.06c2.188-1.638,4.107-3.622,5.672-5.873
			l0.009,0.018c-1.972,0.893-4.109,1.506-6.337,1.792V16.96c2.228-1.445,3.845-3.542,4.769-6.01l-0.009-0.003
			c-2.192,1.214-4.553,2.143-7.056,2.733l0.012-0.099c-1.99-2.177-4.845-3.542-8.012-3.542c-6.008,0-11.056,4.892-11.056,10.925
			c0,0.925,0.164,1.825,0.164,2.684v0.028c-8.958-0.287-17.148-4.725-22.422-11.496l0.067-0.005
			c-1.004,1.627-1.544,3.543-1.544,5.596c0,3.772,1.973,7.087,4.928,8.98l0.026,0.067c-1.741-0.167-3.4-0.6-4.942-1.258l-0.03-0.057
			c0.025,4.826,3.222,9.246,8.095,10.604c0.213,0.063,0.427,0.113,0.641,0.159l-0.009,0.039c-0.901,0.182-1.836,0.276-2.792,0.276
			c-0.706,0-1.399-0.051-2.075-0.152"/>
	</g>
</g>
<g id="facebook">
	<g id="logo">
		<g>
			<path fill="#FFFFFF" d="M108.536,5.178h-7.994c0,0-5.368-0.227-7.753,2.285c-2.568,2.712-2.534,8.392-2.534,8.392v6.462h-6.852
				v9.153h6.852v27.437h10.287V31.47h6.855l1.188-9.035l-8.044,0.022v-5.426c0,0-0.25-1.718,0.828-2.407
				c0.999-0.646,2.548-0.539,2.548-0.539l4.618-0.018V5.178z"/>
		</g>
	</g>
</g>
<g id="logo-pict">
	<g>
		<polygon opacity="0.2" fill="#FFFFFF" points="18.132,49.393 32.363,42.251 24.107,43.556 		"/>
		<polygon opacity="0.2" fill="#FFFFFF" points="60.267,26.478 56.092,23.826 54.102,26.843 		"/>
		<polygon opacity="0.8" fill="#FFFFFF" points="54.109,26.863 56.07,23.889 56.099,23.847 50.104,21.46 43.62,25.879 
			49.481,33.895 		"/>
		<polygon opacity="0.8" fill="#FFFFFF" points="49.523,33.867 34.156,34.353 32.306,42.283 		"/>
		<polygon fill="#FFFFFF" points="43.633,25.872 34.129,34.374 49.495,33.888 		"/>
		<polygon fill="#FFFFFF" points="32.35,42.276 34.199,34.332 17.711,44.585 		"/>
		<polygon opacity="0.2" fill="#FFFFFF" points="38.464,16.787 36.063,17.539 43.66,25.907 		"/>
		<polygon opacity="0.2" fill="#FFFFFF" points="20.451,22.402 8.497,26.146 25.054,26.015 21.212,22.517 		"/>
		<polygon opacity="0.8" fill="#FFFFFF" points="21.192,22.495 34.196,34.353 43.695,25.845 		"/>
		<polygon fill="#FFFFFF" points="43.684,25.925 33.429,14.622 3.999,20.014 20.423,22.458 		"/>
	</g>
</g>
</svg>
